<svg width="768" height="560" viewBox="0 0 768 560" fill="none" xmlns="http://www.w3.org/2000/svg">
<path d="M220.8 228.5H246.9C249.3 228.5 251.3 229.3 252.9 230.9C254.5 232.5 255.3 234.4 255.3 236.6V281.3C255.3 283.5 254.5 285.4 252.9 287C251.3 288.6 249.4 289.4 247.2 289.4H220.8V314.9C220.8 317.1 220 319 218.4 320.6C216.8 322.2 214.9 323 212.7 323H156.9C154.7 323 152.8 322.2 151.2 320.6C149.6 319 148.8 317.1 148.8 314.9V289.4H59.1C56.9 289.4 55 288.6 53.4 287C51.8 285.4 51 283.5 51 281.3V238.4C51 235 52.1 231.9 54.3 229.1L139.2 118.1C142 114.7 145.7 113 150.3 113H212.7C214.9 113 216.8 113.8 218.4 115.4C220 117 220.8 118.9 220.8 121.1V228.5ZM150.9 231.8V188.6L119.4 231.8H150.9Z" fill="#EEEEEE"/>
<path d="M678.8 228.5H704.9C707.3 228.5 709.3 229.3 710.9 230.9C712.5 232.5 713.3 234.4 713.3 236.6V281.3C713.3 283.5 712.5 285.4 710.9 287C709.3 288.6 707.4 289.4 705.2 289.4H678.8V314.9C678.8 317.1 678 319 676.4 320.6C674.8 322.2 672.9 323 670.7 323H614.9C612.7 323 610.8 322.2 609.2 320.6C607.6 319 606.8 317.1 606.8 314.9V289.4H517.1C514.9 289.4 513 288.6 511.4 287C509.8 285.4 509 283.5 509 281.3V238.4C509 235 510.1 231.9 512.3 229.1L597.2 118.1C600 114.7 603.7 113 608.3 113H670.7C672.9 113 674.8 113.8 676.4 115.4C678 117 678.8 118.9 678.8 121.1V228.5ZM608.9 231.8V188.6L577.4 231.8H608.9Z" fill="#EEEEEE"/>
<g filter="url(#filter0_d)">
<path d="M438.399 325.87C447.351 325.87 454.578 318.045 449.191 310.895V310.895C445.614 306.147 440.372 301.834 433.763 298.2C427.154 294.567 419.308 291.684 410.673 289.718C402.038 287.751 392.783 286.739 383.437 286.739C374.09 286.739 364.835 287.751 356.2 289.718C347.565 291.684 339.719 294.567 333.11 298.2C326.502 301.834 321.259 306.147 317.682 310.895V310.895C312.295 318.045 319.522 325.87 328.474 325.87L383.437 325.87H438.399Z" fill="#EEEEEE"/>
<ellipse cx="383.586" cy="300.066" rx="54.1588" ry="14.4612" fill="#EEEEEE"/>
<path d="M326.875 219.253C325.774 152.363 271.809 151.363 274.353 173.694C271.636 207.072 302.201 265.439 348.54 301.633" stroke="#EEEEEE" stroke-width="20"/>
<path d="M439.363 219.253C440.465 152.363 494.43 151.363 491.885 173.694C494.602 207.072 464.037 265.439 417.698 301.633" stroke="#EEEEEE" stroke-width="20"/>
<g filter="url(#filter1_i)">
<path d="M316.234 169.591C316.234 139.702 340.464 115.473 370.353 115.473H397.088C426.976 115.473 451.206 139.702 451.206 169.591V237.401C451.206 274.672 420.992 304.887 383.72 304.887V304.887C346.449 304.887 316.234 274.672 316.234 237.401V169.591Z" fill="#EFEDE4"/>
</g>
<ellipse cx="383.586" cy="123.979" rx="63.7996" ry="14.7448" fill="#EEEEEE"/>
<path d="M364.04 109.234C364.04 109.234 356.34 85.2589 364.04 74.7737C373.61 61.7421 393.561 61.7421 403.131 74.7737C410.831 85.2589 403.131 109.234 403.131 109.234" stroke="#EEEEEE" stroke-width="10"/>
<ellipse cx="383.869" cy="89.6692" rx="11.3422" ry="7.65595" fill="#EEEEEE" stroke="#EEEEEE"/>
<path d="M350.459 95.5067C367.591 85.2129 396.295 84.9417 417.002 95.5067C430.998 102.648 432.074 127.382 432.074 127.382H335.098C335.098 127.382 337.15 103.504 350.459 95.5067Z" fill="#EEEEEE"/>
</g>
<path d="M370.3 229.8H396.4C397.5 229.8 398.45 230.2 399.25 231C400.05 231.8 400.45 232.75 400.45 233.85V259.95C400.45 261.05 400.05 262 399.25 262.8C398.45 263.6 397.5 264 396.4 264H370.3C369.2 264 368.25 263.6 367.45 262.8C366.65 262 366.25 261.05 366.25 259.95V233.85C366.25 232.75 366.65 231.8 367.45 231C368.25 230.2 369.2 229.8 370.3 229.8ZM370.3 159H396.4C397.5 159 398.45 159.4 399.25 160.2C400.05 161 400.45 161.95 400.45 163.05V219.75C400.45 220.85 400.05 221.8 399.25 222.6C398.45 223.4 397.5 223.8 396.4 223.8H370.3C369.2 223.8 368.25 223.4 367.45 222.6C366.65 221.8 366.25 220.85 366.25 219.75V163.05C366.25 161.95 366.65 161 367.45 160.2C368.25 159.4 369.2 159 370.3 159Z" fill="#FF0000"/>
<path d="M67.9628 405.696V415.104C67.9628 418.128 69.3441 419.64 72.1068 419.64C74.2348 419.64 75.6348 418.632 76.3068 416.616C76.4935 415.981 76.7175 415.552 76.9788 415.328C77.2775 415.104 77.7441 414.992 78.3788 414.992H89.8028C90.1388 414.992 90.4188 415.123 90.6428 415.384C90.9041 415.608 91.0348 415.888 91.0348 416.224C91.0348 419.472 90.1015 422.197 88.2348 424.4C84.8001 428.507 79.4428 430.56 72.1628 430.56C66.4508 430.56 61.8961 429.309 58.4988 426.808C55.1015 424.269 53.4028 420.387 53.4028 415.16V405.64C53.4028 400.525 55.1388 396.68 58.6108 394.104C62.0828 391.528 66.6001 390.24 72.1628 390.24C79.4428 390.24 84.8001 392.293 88.2348 396.4C90.1015 398.603 91.0348 401.328 91.0348 404.576C91.0348 404.912 90.9041 405.211 90.6428 405.472C90.4188 405.696 90.1388 405.808 89.8028 405.808H78.3788C77.7815 405.808 77.3335 405.696 77.0348 405.472C76.7735 405.248 76.5308 404.819 76.3068 404.184C75.5975 402.168 74.1975 401.16 72.1068 401.16C69.3441 401.16 67.9628 402.672 67.9628 405.696ZM94.7908 400.88H122.511C122.921 400.88 123.276 401.029 123.575 401.328C123.873 401.627 124.023 401.981 124.023 402.392V409.168C124.023 409.579 123.873 409.933 123.575 410.232C123.276 410.531 122.921 410.68 122.511 410.68H115.063V428.488C115.063 428.899 114.913 429.253 114.615 429.552C114.316 429.851 113.961 430 113.551 430H103.751C103.34 430 102.985 429.851 102.687 429.552C102.388 429.253 102.239 428.899 102.239 428.488V410.68H94.7908C94.3801 410.68 94.0254 410.531 93.7268 410.232C93.4281 409.933 93.2788 409.579 93.2788 409.168V402.392C93.2788 401.981 93.4281 401.627 93.7268 401.328C94.0254 401.029 94.3801 400.88 94.7908 400.88ZM160.106 413.256V417.68C160.106 421.861 158.986 425.053 156.746 427.256C154.506 429.459 151.762 430.56 148.514 430.56C145.303 430.56 142.727 429.683 140.786 427.928V439.184C140.786 439.595 140.636 439.949 140.338 440.248C140.039 440.547 139.684 440.696 139.274 440.696H128.914C128.503 440.696 128.148 440.547 127.85 440.248C127.551 439.949 127.402 439.595 127.402 439.184V402.392C127.402 401.981 127.551 401.627 127.85 401.328C128.148 401.029 128.503 400.88 128.914 400.88H138.434C138.844 400.88 139.199 401.029 139.498 401.328C139.796 401.627 139.946 401.981 139.946 402.392V404.072C141.887 401.571 144.631 400.32 148.178 400.32C151.724 400.32 154.599 401.384 156.802 403.512C159.004 405.603 160.106 408.851 160.106 413.256ZM140.786 413.592V417.736C140.898 419.603 141.831 420.536 143.586 420.536C145.452 420.536 146.386 419.453 146.386 417.288V413.592C146.386 411.427 145.452 410.344 143.586 410.344C141.719 410.344 140.786 411.427 140.786 413.592ZM164.023 421.656C164.023 416.504 168.111 413.275 176.287 411.968L182.223 411.016C182.223 409.896 182.129 409.149 181.943 408.776C181.756 408.365 181.308 408.16 180.599 408.16C179.927 408.16 179.255 408.459 178.583 409.056C177.911 409.653 177.276 409.952 176.679 409.952H167.159C166.337 409.952 165.927 409.56 165.927 408.776C165.927 407.955 166.207 407.096 166.767 406.2C167.364 405.267 168.204 404.352 169.287 403.456C170.407 402.56 171.956 401.813 173.935 401.216C175.951 400.619 178.191 400.32 180.655 400.32C185.657 400.32 189.409 401.365 191.911 403.456C194.412 405.547 195.663 408.533 195.663 412.416V428.488C195.663 428.899 195.513 429.253 195.215 429.552C194.916 429.851 194.561 430 194.151 430H184.351C183.94 430 183.585 429.851 183.287 429.552C182.988 429.253 182.839 428.899 182.839 428.488V426.92C181.084 429.347 178.527 430.56 175.167 430.56C171.807 430.56 169.1 429.72 167.047 428.04C165.031 426.323 164.023 424.195 164.023 421.656ZM178.751 422.272C181.177 422.272 182.391 420.816 182.391 417.904L179.087 418.632C177.444 419.005 176.623 419.696 176.623 420.704C176.623 421.152 176.809 421.525 177.183 421.824C177.556 422.123 178.079 422.272 178.751 422.272ZM231.532 430H221.508C221.098 430 220.743 429.851 220.444 429.552C220.146 429.253 219.996 428.899 219.996 428.488V420.2H214.004V428.488C214.004 428.899 213.855 429.253 213.556 429.552C213.258 429.851 212.903 430 212.492 430H202.468C202.058 430 201.703 429.851 201.404 429.552C201.106 429.253 200.956 428.899 200.956 428.488V402.392C200.956 401.981 201.106 401.627 201.404 401.328C201.703 401.029 202.058 400.88 202.468 400.88H212.492C212.903 400.88 213.258 401.029 213.556 401.328C213.855 401.627 214.004 401.981 214.004 402.392V410.4H219.996V402.392C219.996 401.981 220.146 401.627 220.444 401.328C220.743 401.029 221.098 400.88 221.508 400.88H231.532C231.943 400.88 232.298 401.029 232.596 401.328C232.895 401.627 233.044 401.981 233.044 402.392V428.488C233.044 428.899 232.895 429.253 232.596 429.552C232.298 429.851 231.943 430 231.532 430ZM269.212 430H259.188C258.777 430 258.423 429.851 258.124 429.552C257.825 429.253 257.676 428.899 257.676 428.488V419.36L251.404 429.384C251.105 429.795 250.676 430 250.116 430H240.092C239.681 430 239.327 429.851 239.028 429.552C238.767 429.253 238.636 428.899 238.636 428.488V402.392C238.636 401.981 238.785 401.627 239.084 401.328C239.383 401.029 239.737 400.88 240.148 400.88H250.172C250.583 400.88 250.937 401.029 251.236 401.328C251.535 401.627 251.684 401.981 251.684 402.392V411.52L257.9 401.608C258.199 401.123 258.628 400.88 259.188 400.88H269.212C269.623 400.88 269.977 401.029 270.276 401.328C270.575 401.627 270.724 401.981 270.724 402.392V428.488C270.724 428.899 270.575 429.253 270.276 429.552C269.977 429.851 269.623 430 269.212 430ZM301.012 430H277.828C277.417 430 277.062 429.851 276.764 429.552C276.465 429.253 276.316 428.899 276.316 428.488V402.392C276.316 401.981 276.465 401.627 276.764 401.328C277.062 401.029 277.417 400.88 277.828 400.88H287.292C287.702 400.88 288.057 401.029 288.356 401.328C288.654 401.627 288.804 401.981 288.804 402.392V420.2H293.676V402.392C293.676 401.981 293.825 401.627 294.124 401.328C294.422 401.029 294.777 400.88 295.188 400.88H304.652C305.062 400.88 305.417 401.029 305.716 401.328C306.014 401.627 306.164 401.981 306.164 402.392V420.2H309.748C310.158 420.2 310.513 420.349 310.812 420.648C311.11 420.947 311.26 421.301 311.26 421.712V434.2C311.26 434.611 311.11 434.965 310.812 435.264C310.513 435.563 310.158 435.712 309.748 435.712H302.524C302.113 435.712 301.758 435.563 301.46 435.264C301.161 434.965 301.012 434.611 301.012 434.2V430ZM314.358 421.656C314.358 416.504 318.446 413.275 326.622 411.968L332.558 411.016C332.558 409.896 332.465 409.149 332.278 408.776C332.092 408.365 331.644 408.16 330.934 408.16C330.262 408.16 329.59 408.459 328.918 409.056C328.246 409.653 327.612 409.952 327.014 409.952H317.494C316.673 409.952 316.262 409.56 316.262 408.776C316.262 407.955 316.542 407.096 317.102 406.2C317.7 405.267 318.54 404.352 319.622 403.456C320.742 402.56 322.292 401.813 324.27 401.216C326.286 400.619 328.526 400.32 330.99 400.32C335.993 400.32 339.745 401.365 342.246 403.456C344.748 405.547 345.998 408.533 345.998 412.416V428.488C345.998 428.899 345.849 429.253 345.55 429.552C345.252 429.851 344.897 430 344.486 430H334.686C334.276 430 333.921 429.851 333.622 429.552C333.324 429.253 333.174 428.899 333.174 428.488V426.92C331.42 429.347 328.862 430.56 325.502 430.56C322.142 430.56 319.436 429.72 317.382 428.04C315.366 426.323 314.358 424.195 314.358 421.656ZM329.086 422.272C331.513 422.272 332.726 420.816 332.726 417.904L329.422 418.632C327.78 419.005 326.958 419.696 326.958 420.704C326.958 421.152 327.145 421.525 327.518 421.824C327.892 422.123 328.414 422.272 329.086 422.272ZM398.11 430H388.086C387.676 430 387.321 429.851 387.022 429.552C386.724 429.253 386.574 428.899 386.574 428.488V420.2H380.582V428.488C380.582 428.899 380.433 429.253 380.134 429.552C379.836 429.851 379.481 430 379.07 430H369.046C368.636 430 368.281 429.851 367.982 429.552C367.684 429.253 367.534 428.899 367.534 428.488V402.392C367.534 401.981 367.684 401.627 367.982 401.328C368.281 401.029 368.636 400.88 369.046 400.88H379.07C379.481 400.88 379.836 401.029 380.134 401.328C380.433 401.627 380.582 401.981 380.582 402.392V410.4H386.574V402.392C386.574 401.981 386.724 401.627 387.022 401.328C387.321 401.029 387.676 400.88 388.086 400.88H398.11C398.521 400.88 398.876 401.029 399.174 401.328C399.473 401.627 399.622 401.981 399.622 402.392V428.488C399.622 428.899 399.473 429.253 399.174 429.552C398.876 429.851 398.521 430 398.11 430ZM434.782 418.744H418.094V419.024C418.094 421.301 418.822 422.44 420.278 422.44C420.689 422.44 421.193 422.141 421.79 421.544C422.387 420.947 423.041 420.648 423.75 420.648H434.334C435.155 420.648 435.566 421.059 435.566 421.88C435.566 423.709 434.185 425.613 431.422 427.592C428.697 429.571 424.982 430.56 420.278 430.56C415.611 430.56 411.785 429.347 408.798 426.92C405.849 424.456 404.374 421.077 404.374 416.784V414.096C404.374 410.027 405.886 406.723 408.91 404.184C411.934 401.608 415.891 400.32 420.782 400.32C425.71 400.32 429.518 401.757 432.206 404.632C434.931 407.507 436.294 411.147 436.294 415.552V417.232C436.294 417.643 436.145 417.997 435.846 418.296C435.547 418.595 435.193 418.744 434.782 418.744ZM422.574 411.52C422.574 409.28 421.827 408.16 420.334 408.16C418.841 408.16 418.094 409.28 418.094 411.52V411.744H422.574V411.52ZM487.853 430H477.829C477.418 430 477.063 429.851 476.765 429.552C476.466 429.253 476.317 428.899 476.317 428.488V420.2H470.325V428.488C470.325 428.899 470.175 429.253 469.877 429.552C469.578 429.851 469.223 430 468.813 430H458.789C458.378 430 458.023 429.851 457.725 429.552C457.426 429.253 457.277 428.899 457.277 428.488V402.392C457.277 401.981 457.426 401.627 457.725 401.328C458.023 401.029 458.378 400.88 458.789 400.88H468.813C469.223 400.88 469.578 401.029 469.877 401.328C470.175 401.627 470.325 401.981 470.325 402.392V410.4H476.317V402.392C476.317 401.981 476.466 401.627 476.765 401.328C477.063 401.029 477.418 400.88 477.829 400.88H487.853C488.263 400.88 488.618 401.029 488.917 401.328C489.215 401.627 489.365 401.981 489.365 402.392V428.488C489.365 428.899 489.215 429.253 488.917 429.552C488.618 429.851 488.263 430 487.853 430ZM494.116 421.656C494.116 416.504 498.204 413.275 506.38 411.968L512.316 411.016C512.316 409.896 512.223 409.149 512.036 408.776C511.85 408.365 511.402 408.16 510.692 408.16C510.02 408.16 509.348 408.459 508.676 409.056C508.004 409.653 507.37 409.952 506.772 409.952H497.252C496.431 409.952 496.02 409.56 496.02 408.776C496.02 407.955 496.3 407.096 496.86 406.2C497.458 405.267 498.298 404.352 499.38 403.456C500.5 402.56 502.05 401.813 504.028 401.216C506.044 400.619 508.284 400.32 510.748 400.32C515.751 400.32 519.503 401.365 522.004 403.456C524.506 405.547 525.756 408.533 525.756 412.416V428.488C525.756 428.899 525.607 429.253 525.308 429.552C525.01 429.851 524.655 430 524.244 430H514.444C514.034 430 513.679 429.851 513.38 429.552C513.082 429.253 512.932 428.899 512.932 428.488V426.92C511.178 429.347 508.62 430.56 505.26 430.56C501.9 430.56 499.194 429.72 497.14 428.04C495.124 426.323 494.116 424.195 494.116 421.656ZM508.844 422.272C511.271 422.272 512.484 420.816 512.484 417.904L509.18 418.632C507.538 419.005 506.716 419.696 506.716 420.704C506.716 421.152 506.903 421.525 507.276 421.824C507.65 422.123 508.172 422.272 508.844 422.272ZM561.626 430H551.602C551.191 430 550.837 429.851 550.538 429.552C550.239 429.253 550.09 428.899 550.09 428.488V419.36L543.818 429.384C543.519 429.795 543.09 430 542.53 430H532.506C532.095 430 531.741 429.851 531.442 429.552C531.181 429.253 531.05 428.899 531.05 428.488V402.392C531.05 401.981 531.199 401.627 531.498 401.328C531.797 401.029 532.151 400.88 532.562 400.88H542.586C542.997 400.88 543.351 401.029 543.65 401.328C543.949 401.627 544.098 401.981 544.098 402.392V411.52L550.314 401.608C550.613 401.123 551.042 400.88 551.602 400.88H561.626C562.037 400.88 562.391 401.029 562.69 401.328C562.989 401.627 563.138 401.981 563.138 402.392V428.488C563.138 428.899 562.989 429.253 562.69 429.552C562.391 429.851 562.037 430 561.626 430ZM549.362 390.016C549.362 389.307 549.717 388.952 550.426 388.952H555.69C556.399 388.952 556.754 389.307 556.754 390.016C556.754 392.555 555.895 394.552 554.178 396.008C552.498 397.464 550.127 398.192 547.066 398.192C544.005 398.192 541.634 397.464 539.954 396.008C538.274 394.552 537.434 392.555 537.434 390.016C537.434 389.307 537.789 388.952 538.498 388.952H543.762C544.471 388.952 544.826 389.307 544.826 390.016C544.826 391.883 545.573 392.816 547.066 392.816C548.597 392.816 549.362 391.883 549.362 390.016ZM601.77 435.768H594.266C593.855 435.768 593.5 435.619 593.202 435.32C592.903 435.021 592.754 434.667 592.754 434.256V430.056H578.698V434.256C578.698 434.667 578.548 435.021 578.25 435.32C577.951 435.619 577.596 435.768 577.186 435.768H569.682C569.271 435.768 568.916 435.619 568.618 435.32C568.319 435.021 568.17 434.667 568.17 434.256V422.272C568.17 421.861 568.319 421.507 568.618 421.208C568.916 420.909 569.271 420.76 569.682 420.76H571.362C571.847 420.76 572.22 420.517 572.482 420.032C572.78 419.509 572.93 418.893 572.93 418.184V402.392C572.93 401.981 573.079 401.627 573.378 401.328C573.676 401.029 574.031 400.88 574.442 400.88H598.074C598.484 400.88 598.839 401.029 599.138 401.328C599.436 401.627 599.586 401.981 599.586 402.392V420.76H601.77C602.18 420.76 602.535 420.909 602.834 421.208C603.132 421.507 603.282 421.861 603.282 422.272V434.256C603.282 434.667 603.132 435.021 602.834 435.32C602.535 435.619 602.18 435.768 601.77 435.768ZM584.522 410.12V417.68C584.522 418.352 584.447 419.285 584.298 420.48H587.938V410.12H584.522ZM637.891 418.744H621.203V419.024C621.203 421.301 621.931 422.44 623.387 422.44C623.798 422.44 624.302 422.141 624.899 421.544C625.497 420.947 626.15 420.648 626.859 420.648H637.443C638.265 420.648 638.675 421.059 638.675 421.88C638.675 423.709 637.294 425.613 634.531 427.592C631.806 429.571 628.091 430.56 623.387 430.56C618.721 430.56 614.894 429.347 611.907 426.92C608.958 424.456 607.483 421.077 607.483 416.784V414.096C607.483 410.027 608.995 406.723 612.019 404.184C615.043 401.608 619.001 400.32 623.891 400.32C628.819 400.32 632.627 401.757 635.315 404.632C638.041 407.507 639.403 411.147 639.403 415.552V417.232C639.403 417.643 639.254 417.997 638.955 418.296C638.657 418.595 638.302 418.744 637.891 418.744ZM625.683 411.52C625.683 409.28 624.937 408.16 623.443 408.16C621.95 408.16 621.203 409.28 621.203 411.52V411.744H625.683V411.52ZM674.72 430H664.696C664.285 430 663.93 429.851 663.632 429.552C663.333 429.253 663.184 428.899 663.184 428.488V420.2H657.192V428.488C657.192 428.899 657.042 429.253 656.744 429.552C656.445 429.851 656.09 430 655.68 430H645.656C645.245 430 644.89 429.851 644.592 429.552C644.293 429.253 644.144 428.899 644.144 428.488V402.392C644.144 401.981 644.293 401.627 644.592 401.328C644.89 401.029 645.245 400.88 645.656 400.88H655.68C656.09 400.88 656.445 401.029 656.744 401.328C657.042 401.627 657.192 401.981 657.192 402.392V410.4H663.184V402.392C663.184 401.981 663.333 401.627 663.632 401.328C663.93 401.029 664.285 400.88 664.696 400.88H674.72C675.13 400.88 675.485 401.029 675.784 401.328C676.082 401.627 676.232 401.981 676.232 402.392V428.488C676.232 428.899 676.082 429.253 675.784 429.552C675.485 429.851 675.13 430 674.72 430ZM680.983 421.656C680.983 416.504 685.071 413.275 693.247 411.968L699.183 411.016C699.183 409.896 699.09 409.149 698.903 408.776C698.717 408.365 698.269 408.16 697.559 408.16C696.887 408.16 696.215 408.459 695.543 409.056C694.871 409.653 694.237 409.952 693.639 409.952H684.119C683.298 409.952 682.887 409.56 682.887 408.776C682.887 407.955 683.167 407.096 683.727 406.2C684.325 405.267 685.165 404.352 686.247 403.456C687.367 402.56 688.917 401.813 690.895 401.216C692.911 400.619 695.151 400.32 697.615 400.32C702.618 400.32 706.37 401.365 708.871 403.456C711.373 405.547 712.623 408.533 712.623 412.416V428.488C712.623 428.899 712.474 429.253 712.175 429.552C711.877 429.851 711.522 430 711.111 430H701.311C700.901 430 700.546 429.851 700.247 429.552C699.949 429.253 699.799 428.899 699.799 428.488V426.92C698.045 429.347 695.487 430.56 692.127 430.56C688.767 430.56 686.061 429.72 684.007 428.04C681.991 426.323 680.983 424.195 680.983 421.656ZM695.711 422.272C698.138 422.272 699.351 420.816 699.351 417.904L696.047 418.632C694.405 419.005 693.583 419.696 693.583 420.704C693.583 421.152 693.77 421.525 694.143 421.824C694.517 422.123 695.039 422.272 695.711 422.272Z" fill="#EEEEEE"/>
<defs>
<filter id="filter0_d" x="200.933" y="0" width="364.373" height="385.87" filterUnits="userSpaceOnUse" color-interpolation-filters="sRGB">
<feFlood flood-opacity="0" result="BackgroundImageFix"/>
<feColorMatrix in="SourceAlpha" type="matrix" values="0 0 0 0 0 0 0 0 0 0 0 0 0 0 0 0 0 0 127 0" result="hardAlpha"/>
<feOffset/>
<feGaussianBlur stdDeviation="30"/>
<feColorMatrix type="matrix" values="0 0 0 0 0 0 0 0 0 0 0 0 0 0 0 0 0 0 0.5 0"/>
<feBlend mode="normal" in2="BackgroundImageFix" result="effect1_dropShadow"/>
<feBlend mode="normal" in="SourceGraphic" in2="effect1_dropShadow" result="shape"/>
</filter>
<filter id="filter1_i" x="316.234" y="115.473" width="134.972" height="189.414" filterUnits="userSpaceOnUse" color-interpolation-filters="sRGB">
<feFlood flood-opacity="0" result="BackgroundImageFix"/>
<feBlend mode="normal" in="SourceGraphic" in2="BackgroundImageFix" result="shape"/>
<feColorMatrix in="SourceAlpha" type="matrix" values="0 0 0 0 0 0 0 0 0 0 0 0 0 0 0 0 0 0 127 0" result="hardAlpha"/>
<feOffset/>
<feGaussianBlur stdDeviation="25"/>
<feComposite in2="hardAlpha" operator="arithmetic" k2="-1" k3="1"/>
<feColorMatrix type="matrix" values="0 0 0 0 0 0 0 0 0 0 0 0 0 0 0 0 0 0 0.49 0"/>
<feBlend mode="normal" in2="shape" result="effect1_innerShadow"/>
</filter>
</defs>
</svg>
