<svg width="361" height="96" viewBox="0 0 361 96" fill="none" xmlns="http://www.w3.org/2000/svg">
<g filter="url(#filter0_dd)">
<rect x="20" y="20" width="321" height="56" rx="20" fill="#F8BB3B"/>
</g>
<path d="M108.681 56C108.508 56 108.361 55.9393 108.239 55.818C108.118 55.6967 108.057 55.5493 108.057 55.376V38.45C108.057 38.2593 108.109 38.1033 108.213 37.982C108.335 37.8607 108.491 37.8 108.681 37.8H111.047C111.238 37.8 111.385 37.8607 111.489 37.982C111.611 38.1033 111.671 38.2593 111.671 38.45V45.158H119.341V38.45C119.341 38.2593 119.393 38.1033 119.497 37.982C119.619 37.8607 119.775 37.8 119.965 37.8H122.305C122.496 37.8 122.652 37.8607 122.773 37.982C122.895 38.1033 122.955 38.2593 122.955 38.45V55.376C122.955 55.5667 122.895 55.7227 122.773 55.844C122.652 55.948 122.496 56 122.305 56H119.965C119.792 56 119.645 55.9393 119.523 55.818C119.402 55.6967 119.341 55.5493 119.341 55.376V48.408H111.671V55.376C111.671 55.5493 111.611 55.6967 111.489 55.818C111.385 55.9393 111.238 56 111.047 56H108.681ZM130.613 56.26C129.729 56.26 128.914 56.0867 128.169 55.74C127.441 55.376 126.86 54.8907 126.427 54.284C126.011 53.6773 125.803 53.01 125.803 52.282C125.803 51.1033 126.279 50.15 127.233 49.422C128.186 48.694 129.495 48.2 131.159 47.94L134.721 47.42V46.874C134.721 46.1113 134.53 45.5393 134.149 45.158C133.767 44.7767 133.152 44.586 132.303 44.586C131.731 44.586 131.263 44.6987 130.899 44.924C130.552 45.132 130.275 45.34 130.067 45.548C129.859 45.7733 129.72 45.9207 129.651 45.99C129.581 46.198 129.451 46.302 129.261 46.302H127.259C127.103 46.302 126.964 46.25 126.843 46.146C126.739 46.042 126.687 45.9033 126.687 45.73C126.704 45.2967 126.912 44.8027 127.311 44.248C127.727 43.6933 128.359 43.2167 129.209 42.818C130.058 42.4193 131.098 42.22 132.329 42.22C134.374 42.22 135.865 42.6793 136.801 43.598C137.737 44.5167 138.205 45.7213 138.205 47.212V55.376C138.205 55.5493 138.144 55.6967 138.023 55.818C137.919 55.9393 137.771 56 137.581 56H135.475C135.301 56 135.154 55.9393 135.033 55.818C134.911 55.6967 134.851 55.5493 134.851 55.376V54.362C134.469 54.9167 133.923 55.376 133.213 55.74C132.519 56.0867 131.653 56.26 130.613 56.26ZM131.497 53.79C132.45 53.79 133.23 53.478 133.837 52.854C134.443 52.23 134.747 51.32 134.747 50.124V49.578L132.147 49.994C131.141 50.15 130.379 50.4013 129.859 50.748C129.356 51.0947 129.105 51.5193 129.105 52.022C129.105 52.5767 129.339 53.01 129.807 53.322C130.275 53.634 130.838 53.79 131.497 53.79ZM148.106 56C147.932 56 147.785 55.9393 147.664 55.818C147.542 55.6967 147.482 55.5493 147.482 55.376V43.104C147.482 42.9307 147.542 42.7833 147.664 42.662C147.785 42.5407 147.932 42.48 148.106 42.48H156.348C156.538 42.48 156.686 42.5407 156.79 42.662C156.911 42.766 156.972 42.9133 156.972 43.104V44.586C156.972 44.7767 156.911 44.9327 156.79 45.054C156.668 45.1753 156.521 45.236 156.348 45.236H150.888V55.376C150.888 55.5493 150.827 55.6967 150.706 55.818C150.602 55.9393 150.454 56 150.264 56H148.106ZM157.882 56C157.709 56 157.553 55.9393 157.414 55.818C157.293 55.6793 157.232 55.5233 157.232 55.35V53.738C157.232 53.5647 157.284 53.426 157.388 53.322C157.492 53.2007 157.639 53.1313 157.83 53.114C158.593 53.0793 159.139 52.5593 159.468 51.554C159.815 50.5313 159.988 48.8847 159.988 46.614V43.104C159.988 42.9133 160.049 42.766 160.17 42.662C160.291 42.5407 160.439 42.48 160.612 42.48H169.842C170.015 42.48 170.163 42.5407 170.284 42.662C170.405 42.7833 170.466 42.9307 170.466 43.104V55.376C170.466 55.5493 170.405 55.6967 170.284 55.818C170.163 55.9393 170.015 56 169.842 56H167.684C167.511 56 167.363 55.9393 167.242 55.818C167.121 55.6967 167.06 55.5493 167.06 55.376V45.236H163.238V46.978C163.238 49.2313 163.065 51.008 162.718 52.308C162.389 53.608 161.834 54.5527 161.054 55.142C160.291 55.714 159.234 56 157.882 56ZM177.89 56.26C177.006 56.26 176.191 56.0867 175.446 55.74C174.718 55.376 174.137 54.8907 173.704 54.284C173.288 53.6773 173.08 53.01 173.08 52.282C173.08 51.1033 173.557 50.15 174.51 49.422C175.463 48.694 176.772 48.2 178.436 47.94L181.998 47.42V46.874C181.998 46.1113 181.807 45.5393 181.426 45.158C181.045 44.7767 180.429 44.586 179.58 44.586C179.008 44.586 178.54 44.6987 178.176 44.924C177.829 45.132 177.552 45.34 177.344 45.548C177.136 45.7733 176.997 45.9207 176.928 45.99C176.859 46.198 176.729 46.302 176.538 46.302H174.536C174.38 46.302 174.241 46.25 174.12 46.146C174.016 46.042 173.964 45.9033 173.964 45.73C173.981 45.2967 174.189 44.8027 174.588 44.248C175.004 43.6933 175.637 43.2167 176.486 42.818C177.335 42.4193 178.375 42.22 179.606 42.22C181.651 42.22 183.142 42.6793 184.078 43.598C185.014 44.5167 185.482 45.7213 185.482 47.212V55.376C185.482 55.5493 185.421 55.6967 185.3 55.818C185.196 55.9393 185.049 56 184.858 56H182.752C182.579 56 182.431 55.9393 182.31 55.818C182.189 55.6967 182.128 55.5493 182.128 55.376V54.362C181.747 54.9167 181.201 55.376 180.49 55.74C179.797 56.0867 178.93 56.26 177.89 56.26ZM178.774 53.79C179.727 53.79 180.507 53.478 181.114 52.854C181.721 52.23 182.024 51.32 182.024 50.124V49.578L179.424 49.994C178.419 50.15 177.656 50.4013 177.136 50.748C176.633 51.0947 176.382 51.5193 176.382 52.022C176.382 52.5767 176.616 53.01 177.084 53.322C177.552 53.634 178.115 53.79 178.774 53.79ZM189.442 56C189.268 56 189.121 55.9393 189 55.818C188.878 55.6967 188.818 55.5493 188.818 55.376V43.104C188.818 42.9307 188.878 42.7833 189 42.662C189.121 42.5407 189.268 42.48 189.442 42.48H195.214C196.999 42.48 198.342 42.8093 199.244 43.468C200.162 44.1267 200.622 45.0453 200.622 46.224C200.622 46.9173 200.492 47.472 200.232 47.888C199.972 48.2867 199.582 48.642 199.062 48.954C199.668 49.2313 200.136 49.6473 200.466 50.202C200.812 50.7567 200.986 51.3807 200.986 52.074C200.986 53.3393 200.518 54.31 199.582 54.986C198.646 55.662 197.285 56 195.5 56H189.442ZM195.162 47.992C195.855 47.992 196.401 47.8533 196.8 47.576C197.198 47.2813 197.398 46.8567 197.398 46.302C197.398 45.7647 197.207 45.3833 196.826 45.158C196.444 44.9327 195.89 44.82 195.162 44.82H192.146V47.992H195.162ZM195.266 53.66C195.976 53.66 196.531 53.53 196.93 53.27C197.346 52.9927 197.554 52.5853 197.554 52.048C197.554 51.476 197.363 51.06 196.982 50.8C196.618 50.54 196.046 50.41 195.266 50.41H192.146V53.66H195.266ZM204.6 56C204.426 56 204.279 55.9393 204.158 55.818C204.036 55.6967 203.976 55.5493 203.976 55.376V43.104C203.976 42.9307 204.036 42.7833 204.158 42.662C204.279 42.5407 204.426 42.48 204.6 42.48H206.758C206.948 42.48 207.096 42.5407 207.2 42.662C207.321 42.766 207.382 42.9133 207.382 43.104V47.758H213.258V43.104C213.258 42.9133 213.318 42.766 213.44 42.662C213.561 42.5407 213.708 42.48 213.882 42.48H216.04C216.23 42.48 216.378 42.5407 216.482 42.662C216.603 42.766 216.664 42.9133 216.664 43.104V55.376C216.664 55.5493 216.603 55.6967 216.482 55.818C216.378 55.9393 216.23 56 216.04 56H213.882C213.708 56 213.561 55.9393 213.44 55.818C213.318 55.6967 213.258 55.5493 213.258 55.376V50.488H207.382V55.376C207.382 55.5493 207.321 55.6967 207.2 55.818C207.096 55.9393 206.948 56 206.758 56H204.6ZM232.161 42.48C232.3 42.48 232.421 42.532 232.525 42.636C232.646 42.74 232.707 42.8613 232.707 43C232.707 43.1213 232.672 43.26 232.603 43.416L227.663 55.22C227.126 56.5027 226.64 57.5253 226.207 58.288C225.774 59.0507 225.236 59.6833 224.595 60.186C223.954 60.6887 223.182 60.94 222.281 60.94H221.137C220.964 60.94 220.816 60.8793 220.695 60.758C220.574 60.654 220.513 60.5067 220.513 60.316V58.834C220.513 58.6607 220.574 58.5133 220.695 58.392C220.816 58.2707 220.964 58.21 221.137 58.21H221.943C222.463 58.21 222.853 58.0627 223.113 57.768C223.373 57.4733 223.685 56.884 224.049 56L224.335 55.298L219.213 43.416C219.144 43.26 219.109 43.1387 219.109 43.052C219.126 42.896 219.187 42.766 219.291 42.662C219.395 42.5407 219.525 42.48 219.681 42.48H221.761C222.073 42.48 222.298 42.6447 222.437 42.974L225.895 51.528L229.457 42.974C229.578 42.6447 229.821 42.48 230.185 42.48H232.161ZM253.775 48.096C253.792 48.304 253.801 48.6853 253.801 49.24C253.801 49.7947 253.792 50.176 253.775 50.384C253.688 52.204 253.09 53.6427 251.981 54.7C250.872 55.74 249.303 56.26 247.275 56.26C245.264 56.26 243.704 55.7487 242.595 54.726C241.503 53.686 240.896 52.2733 240.775 50.488H238.409V55.376C238.409 55.5493 238.348 55.6967 238.227 55.818C238.123 55.9393 237.976 56 237.785 56H235.627C235.454 56 235.306 55.9393 235.185 55.818C235.064 55.6967 235.003 55.5493 235.003 55.376V43.104C235.003 42.9307 235.064 42.7833 235.185 42.662C235.306 42.5407 235.454 42.48 235.627 42.48H237.785C237.976 42.48 238.123 42.5407 238.227 42.662C238.348 42.766 238.409 42.9133 238.409 43.104V47.758H240.801C240.957 46.042 241.59 44.69 242.699 43.702C243.826 42.714 245.351 42.22 247.275 42.22C249.268 42.22 250.828 42.7487 251.955 43.806C253.082 44.8633 253.688 46.2933 253.775 48.096ZM250.239 50.254C250.256 50.0807 250.265 49.7427 250.265 49.24C250.265 48.7373 250.256 48.3993 250.239 48.226C250.187 47.0993 249.91 46.25 249.407 45.678C248.904 45.0887 248.194 44.794 247.275 44.794C246.356 44.794 245.646 45.0887 245.143 45.678C244.64 46.25 244.363 47.0993 244.311 48.226L244.285 49.24L244.311 50.254C244.363 51.3807 244.64 52.2387 245.143 52.828C245.646 53.4 246.356 53.686 247.275 53.686C248.194 53.686 248.904 53.4 249.407 52.828C249.91 52.2387 250.187 51.3807 250.239 50.254Z" fill="white"/>
<defs>
<filter id="filter0_dd" x="0" y="0" width="361" height="96" filterUnits="userSpaceOnUse" color-interpolation-filters="sRGB">
<feFlood flood-opacity="0" result="BackgroundImageFix"/>
<feColorMatrix in="SourceAlpha" type="matrix" values="0 0 0 0 0 0 0 0 0 0 0 0 0 0 0 0 0 0 127 0" result="hardAlpha"/>
<feOffset dx="5" dy="5"/>
<feGaussianBlur stdDeviation="7.5"/>
<feColorMatrix type="matrix" values="0 0 0 0 0 0 0 0 0 0 0 0 0 0 0 0 0 0 1 0"/>
<feBlend mode="normal" in2="BackgroundImageFix" result="effect1_dropShadow"/>
<feColorMatrix in="SourceAlpha" type="matrix" values="0 0 0 0 0 0 0 0 0 0 0 0 0 0 0 0 0 0 127 0" result="hardAlpha"/>
<feOffset dx="-5" dy="-5"/>
<feGaussianBlur stdDeviation="7.5"/>
<feColorMatrix type="matrix" values="0 0 0 0 0.231373 0 0 0 0 0.266667 0 0 0 0 0.317647 0 0 0 1 0"/>
<feBlend mode="normal" in2="effect1_dropShadow" result="effect2_dropShadow"/>
<feBlend mode="normal" in="SourceGraphic" in2="effect2_dropShadow" result="shape"/>
</filter>
</defs>
</svg>
