<svg width="27" height="20" viewBox="0 0 27 20" fill="none" xmlns="http://www.w3.org/2000/svg">
<path d="M0 10C0 9.07952 0.746192 8.33333 1.66667 8.33333H18.3333C19.2538 8.33333 20 9.07952 20 10C20 10.9205 19.2538 11.6667 18.3333 11.6667H1.66667C0.746191 11.6667 0 10.9205 0 10ZM0 1.66667C0 0.746192 0.746192 0 1.66667 0H25C25.9205 0 26.6667 0.746192 26.6667 1.66667C26.6667 2.58714 25.9205 3.33333 25 3.33333H1.66666C0.74619 3.33333 0 2.58714 0 1.66667ZM0 18.3333C0 19.2538 0.746192 20 1.66667 20H10.3917C11.3121 20 12.0583 19.2538 12.0583 18.3333C12.0583 17.4129 11.3121 16.6667 10.3917 16.6667H1.66667C0.746194 16.6667 0 17.4129 0 18.3333Z" fill="white"/>
</svg>
