<?xml version="1.0" standalone="no"?>
<!DOCTYPE svg PUBLIC "-//W3C//DTD SVG 20010904//EN"
 "http://www.w3.org/TR/2001/REC-SVG-20010904/DTD/svg10.dtd">
<svg version="1.0" xmlns="http://www.w3.org/2000/svg"
 width="564.000000pt" height="564.000000pt" viewBox="0 0 564.000000 564.000000"
 preserveAspectRatio="xMidYMid meet">
<metadata>
Created by potrace 1.14, written by Peter Selinger 2001-2017
</metadata>
<g transform="translate(0.000000,564.000000) scale(0.100000,-0.100000)"
fill="#000000" stroke="none">
<path d="M2818 5254 c-2 -1 -24 -5 -51 -8 -26 -4 -58 -11 -72 -16 -14 -5 -25
-7 -25 -4 0 4 -7 1 -15 -6 -8 -6 -18 -9 -24 -6 -5 3 -11 -1 -15 -9 -3 -8 -10
-15 -17 -15 -6 0 -22 -9 -36 -20 -14 -11 -29 -17 -34 -14 -5 3 -8 2 -7 -3 1
-4 -19 -30 -45 -58 -26 -27 -50 -58 -53 -68 -3 -9 -9 -15 -14 -12 -5 3 -12 0
-16 -6 -5 -8 -3 -9 6 -4 10 6 12 4 6 -11 -12 -30 -34 -154 -28 -154 3 0 -3 -7
-14 -15 -19 -15 -19 -15 1 -8 17 6 18 4 8 -8 -8 -9 -9 -20 -3 -29 14 -21 12
-30 -4 -30 -8 0 -17 -4 -20 -9 -4 -5 4 -7 16 -4 23 5 23 5 3 -10 -11 -9 -27
-17 -36 -17 -9 0 -22 -7 -29 -15 -7 -9 -15 -13 -18 -11 -2 3 -19 -5 -36 -18
-17 -13 -37 -21 -45 -18 -8 2 -11 0 -7 -6 8 -14 -23 -44 -36 -36 -6 4 -8 2 -5
-3 7 -12 -26 -55 -37 -48 -3 3 -4 2 -1 -1 6 -9 -24 -66 -33 -60 -4 2 -8 -6 -8
-19 -1 -12 -10 -35 -20 -51 -11 -15 -19 -37 -19 -48 0 -21 -37 -45 -78 -50
-12 -2 -35 -9 -51 -15 -16 -6 -36 -13 -45 -14 -15 -3 -35 -14 -108 -61 -45
-29 -58 -68 -37 -112 9 -18 24 -36 35 -39 10 -4 19 -13 19 -20 0 -9 6 -12 16
-8 13 5 15 0 11 -26 -3 -18 -1 -29 4 -25 5 3 7 10 4 15 -4 5 -2 9 3 9 4 0 16
-16 25 -36 15 -30 15 -38 4 -55 -8 -10 -17 -17 -20 -14 -4 3 -5 2 -2 -1 6 -9
-14 -44 -26 -44 -6 0 -7 5 -4 10 10 16 -1 11 -16 -7 -8 -10 -9 -14 -2 -10 23
14 20 -9 -6 -55 -15 -27 -31 -45 -35 -41 -4 4 -4 0 0 -10 4 -11 1 -17 -7 -17
-7 0 -10 -3 -6 -6 3 -4 0 -23 -9 -42 -19 -47 -54 -183 -58 -229 -1 -21 -10
-42 -22 -50 -18 -15 -18 -15 3 -8 18 5 22 3 17 -9 -8 -21 -20 -20 -36 2 -7 10
-30 31 -50 46 -21 16 -35 32 -32 37 3 5 -2 6 -10 3 -9 -3 -16 -1 -16 5 0 6 -6
11 -14 11 -21 0 -40 27 -24 33 7 3 4 5 -7 5 -41 -2 -56 2 -49 14 4 7 3 8 -5 4
-6 -4 -19 -2 -28 6 -9 7 -19 12 -22 11 -3 -1 -24 2 -46 8 -126 35 -233 30
-328 -14 -56 -26 -137 -98 -137 -122 0 -8 -4 -15 -9 -15 -15 0 -30 -111 -30
-217 1 -56 -2 -107 -6 -113 -3 -5 -2 -10 3 -10 8 0 12 -27 27 -171 2 -14 8
-36 14 -48 7 -11 10 -21 7 -21 -2 0 4 -29 14 -64 10 -36 16 -67 12 -70 -3 -3
-1 -6 5 -6 6 0 14 -15 17 -33 7 -39 63 -181 107 -277 17 -35 31 -72 32 -82 1
-9 3 -15 5 -13 2 2 25 -38 51 -88 62 -119 85 -161 92 -167 3 -3 9 -12 12 -20
4 -8 16 -28 27 -45 11 -16 23 -38 26 -47 4 -10 10 -18 15 -18 5 0 9 -7 9 -15
0 -8 4 -15 8 -15 13 0 52 -76 44 -85 -4 -5 -1 -5 6 -1 7 4 15 0 19 -11 3 -10
13 -22 20 -26 7 -5 11 -12 8 -18 -4 -5 -1 -9 5 -9 6 0 8 -5 5 -10 -3 -5 -1
-10 5 -10 6 0 8 -5 5 -10 -4 -6 -1 -9 7 -8 8 2 12 -6 10 -22 -1 -17 1 -21 7
-12 6 11 14 6 32 -20 26 -36 47 -63 66 -83 8 -9 9 -15 1 -23 -8 -8 -5 -9 11
-5 11 3 21 1 21 -4 0 -5 25 -38 55 -73 30 -34 52 -67 49 -72 -3 -5 0 -7 8 -6
7 2 12 -3 11 -9 -2 -7 4 -13 13 -13 10 0 14 -6 11 -14 -4 -10 -1 -13 8 -10 16
6 34 -23 30 -49 -2 -9 1 -15 6 -11 5 3 7 10 4 15 -11 18 8 9 26 -12 10 -12 16
-26 12 -32 -3 -5 -1 -7 5 -3 6 3 24 -8 42 -25 17 -17 24 -29 15 -25 -9 3 -13
2 -10 -4 3 -6 15 -10 25 -10 25 0 36 -20 19 -32 -12 -7 -11 -9 1 -7 28 3 40
-1 40 -12 0 -6 -7 -8 -16 -5 -9 3 -12 2 -9 -5 4 -6 -1 -19 -10 -29 -9 -10 -14
-24 -10 -29 3 -6 -2 -11 -12 -11 -15 0 -16 -2 -3 -11 12 -9 10 -10 -8 -6 -14
3 -21 1 -20 -7 2 -6 -1 -12 -6 -13 -5 -1 -12 -7 -17 -14 -6 -10 -11 -10 -26 2
-17 13 -17 13 -3 -5 11 -14 12 -20 3 -23 -37 -13 -143 -142 -143 -175 0 -11
-4 -16 -11 -12 -8 5 -8 1 0 -13 6 -11 8 -23 5 -26 -8 -7 35 -80 59 -100 59
-48 118 -61 260 -58 70 1 107 -1 103 -8 -4 -5 -2 -13 4 -16 6 -4 9 -1 8 7 -2
10 15 13 72 13 57 0 74 -3 72 -13 -1 -8 2 -11 8 -7 6 3 8 11 5 16 -4 5 3 9 15
9 12 0 19 -4 15 -9 -3 -5 -1 -13 5 -16 6 -4 9 -1 8 7 -2 9 11 13 44 14 34 1
46 -1 41 -10 -4 -6 1 -5 10 3 14 11 20 11 34 0 11 -10 14 -10 9 -2 -5 10 6 13
44 13 29 0 49 -4 45 -9 -3 -5 -1 -13 5 -16 6 -4 9 -1 8 7 -2 9 11 13 44 14 34
1 46 -1 41 -10 -4 -6 1 -5 10 3 14 11 20 11 34 0 11 -10 14 -10 9 -2 -6 10 15
13 93 11 66 -1 98 -6 93 -13 -3 -5 2 -4 11 4 14 11 20 11 34 0 11 -10 14 -10
9 -2 -6 10 15 13 93 11 66 -1 98 -6 93 -13 -3 -5 2 -4 11 4 14 11 20 11 34 0
9 -8 14 -9 10 -3 -5 9 87 12 351 12 214 1 371 5 391 11 19 6 38 8 44 4 6 -3 7
-1 3 5 -4 7 3 16 17 21 38 15 77 73 86 130 4 27 5 48 1 46 -4 -3 -13 9 -20 25
-16 38 -164 190 -186 190 -3 0 -12 6 -19 14 -10 10 -11 16 -3 24 8 8 7 13 -5
18 -9 3 -17 10 -17 16 0 5 5 6 12 2 7 -4 8 -3 4 5 -4 6 -11 9 -15 6 -5 -2 -16
4 -25 13 -15 17 -14 20 12 45 16 15 32 24 37 20 4 -5 6 -3 2 2 -9 16 78 96 91
83 6 -6 12 -6 17 1 3 6 1 10 -6 9 -6 -2 -14 3 -17 11 -3 10 0 12 12 8 8 -3 15
-3 14 1 -2 12 14 42 23 42 5 0 7 -11 5 -25 -3 -14 -1 -23 4 -20 5 3 7 19 5 35
-3 23 0 30 12 30 9 0 13 3 10 6 -8 9 83 110 95 106 5 -1 7 2 3 8 -3 5 8 25 24
42 17 18 57 67 88 110 32 42 62 74 67 71 5 -4 6 0 1 7 -5 8 -2 17 6 24 8 6 25
28 38 49 13 21 30 44 38 52 8 8 11 15 6 15 -4 0 -3 4 2 8 6 4 37 50 70 102 33
52 63 98 68 101 5 3 9 10 8 15 0 5 14 34 32 64 17 30 32 57 32 60 1 3 22 46
46 95 25 50 53 109 62 133 10 24 21 41 26 37 5 -3 7 3 4 14 -2 10 5 38 17 62
12 24 24 55 26 69 3 13 8 27 12 30 4 3 7 11 8 18 3 39 5 43 16 36 6 -4 8 -3 4
4 -3 6 3 44 14 84 11 40 23 89 26 108 3 19 7 43 10 52 24 84 35 327 18 418 -4
25 -7 48 -6 53 1 4 -2 7 -8 7 -5 0 -10 6 -10 14 0 25 -92 108 -149 134 -55 26
-67 29 -146 35 -22 1 -46 7 -54 11 -10 6 -12 5 -7 -2 5 -8 -2 -12 -21 -12 -15
0 -39 -3 -53 -7 -21 -5 -23 -4 -15 8 7 10 5 10 -5 -1 -15 -16 -95 -45 -117
-43 -7 0 -11 -3 -8 -7 7 -11 -24 -22 -38 -13 -7 3 -9 3 -5 -2 6 -6 -53 -55
-67 -55 -3 0 -24 -18 -46 -40 -44 -43 -59 -49 -59 -25 0 9 6 12 18 8 13 -4 12
-2 -4 10 -15 11 -20 26 -19 51 0 20 -2 36 -5 36 -4 0 -7 6 -7 13 0 6 -8 42
-17 79 -10 37 -15 72 -11 78 3 6 0 7 -10 4 -9 -4 -15 -3 -13 2 1 5 -3 19 -10
32 -7 12 -10 27 -7 32 3 6 2 10 -3 10 -16 0 -24 33 -10 42 9 6 7 8 -7 6 -14
-2 -20 2 -19 14 1 10 -2 15 -7 12 -5 -2 -11 7 -15 21 -3 14 -9 24 -12 21 -3
-3 -12 3 -19 14 -12 16 -12 24 -3 35 7 8 17 12 23 8 6 -4 7 -1 3 6 -6 9 -12 9
-25 -3 -10 -9 -21 -13 -24 -9 -11 10 -8 43 3 43 5 0 9 6 7 13 -1 6 3 11 10 10
7 -2 10 3 7 11 -7 19 49 58 73 50 15 -5 15 -4 3 5 -14 10 -7 16 15 11 5 -1 7
2 3 6 -4 4 -3 13 2 19 15 18 16 61 2 87 -16 30 -86 72 -157 96 -30 11 -53 21
-51 23 2 2 -10 5 -27 6 -17 1 -34 7 -37 14 -4 6 -11 11 -16 12 -5 1 -8 5 -7
10 2 4 -1 7 -6 7 -5 0 -15 17 -22 38 -6 20 -22 57 -35 81 -13 24 -21 48 -18
53 3 5 1 7 -4 6 -6 -2 -12 2 -13 7 -2 6 -20 24 -39 40 -55 47 -60 53 -52 58 4
2 1 2 -6 0 -8 -2 -21 5 -30 15 -10 10 -12 11 -7 3 9 -12 7 -12 -13 -2 -12 7
-20 16 -17 21 3 4 -4 6 -15 3 -11 -3 -20 -1 -20 4 0 5 -9 9 -21 10 -36 3 -46
20 -44 75 3 66 -18 174 -44 231 -21 47 -124 157 -146 157 -8 0 -15 4 -17 8 -6
16 -136 62 -197 70 -34 5 -62 8 -63 6z m95 -114 c47 -12 103 -37 125 -54 62
-50 94 -85 87 -96 -5 -9 -4 -11 3 -6 15 9 41 -54 48 -114 9 -83 9 -112 2 -116
-5 -3 -8 -1 -8 4 0 5 -13 9 -29 10 -41 1 -111 21 -108 31 4 15 -62 80 -88 87
-14 3 -25 9 -25 13 0 4 -16 6 -35 6 -19 -1 -35 3 -35 8 0 5 -7 4 -15 -3 -12
-10 -15 -10 -15 1 0 10 -2 11 -8 2 -4 -7 -16 -11 -27 -9 -10 1 -32 -4 -48 -12
-25 -12 -33 -13 -51 -2 -19 12 -20 12 -8 -3 15 -18 8 -37 -14 -37 -8 0 -14 -7
-14 -16 0 -11 -5 -14 -16 -10 -14 5 -15 4 -5 -8 7 -8 8 -17 3 -20 -10 -6 -35
18 -27 26 3 2 -2 5 -10 5 -13 0 -13 -2 0 -17 22 -25 19 -28 -24 -26 -22 0 -37
-2 -34 -6 2 -5 -7 -8 -21 -8 -14 0 -29 0 -33 0 -12 0 -11 23 1 39 8 11 8 13 0
8 -6 -4 -10 2 -8 16 1 12 3 22 4 22 1 0 3 16 6 35 5 39 35 104 65 139 17 21
22 23 31 10 8 -12 9 -11 5 2 -4 11 8 26 36 47 23 16 44 30 47 30 3 0 12 3 20
6 73 25 161 32 223 16z m-1720 -1744 c-4 -6 1 -5 11 3 15 13 19 13 27 0 5 -8
9 -10 9 -5 0 6 7 1 15 -10 13 -16 14 -17 9 -1 -6 17 -5 17 29 1 20 -10 34 -21
32 -25 -3 -3 2 -6 10 -5 19 1 114 -65 115 -80 0 -7 7 -15 16 -18 8 -3 12 -11
9 -16 -4 -6 -1 -9 7 -8 7 2 12 -3 11 -9 -2 -7 3 -12 10 -10 6 1 12 -6 12 -15
0 -9 4 -20 9 -25 5 -5 6 -2 1 7 -16 30 22 -13 44 -50 40 -67 50 -94 39 -108
-8 -9 -7 -11 6 -6 18 7 18 7 21 -81 1 -33 -3 -66 -9 -74 -8 -11 -8 -13 0 -8 8
4 12 -15 13 -64 1 -55 -1 -69 -11 -63 -10 6 -11 5 -1 -7 16 -20 16 -162 0
-152 -9 5 -9 3 -1 -8 15 -20 16 -120 1 -138 -7 -9 -7 -12 -1 -8 8 5 11 -40 10
-158 -1 -91 2 -165 5 -165 8 0 5 -33 -5 -48 -4 -6 -3 -12 2 -12 5 0 12 -17 15
-37 3 -21 8 -48 11 -61 3 -13 1 -20 -5 -17 -14 9 -11 -4 4 -20 8 -7 13 -27 12
-44 -1 -16 2 -28 5 -26 4 3 10 -6 12 -20 3 -16 1 -22 -6 -19 -6 3 -4 0 4 -8 9
-7 23 -32 32 -55 15 -39 15 -42 -1 -48 -17 -7 -50 26 -124 128 -23 32 -57 77
-74 100 -18 23 -33 48 -33 55 0 6 -4 12 -10 12 -5 0 -10 7 -10 15 0 8 -4 15
-9 15 -5 0 -20 22 -34 50 -13 27 -27 46 -31 43 -3 -4 -6 -1 -6 5 0 6 -16 37
-36 68 -20 31 -32 54 -26 50 6 -3 14 -2 17 4 4 6 3 10 -2 9 -33 -6 -51 24 -31
50 11 14 11 14 -3 4 -14 -11 -20 -4 -49 55 -51 105 -134 287 -136 302 0 3 -4
12 -7 20 -31 76 -81 249 -93 326 -3 21 -8 41 -10 43 -2 2 2 11 9 19 9 13 9 14
0 8 -9 -5 -13 0 -14 16 0 13 -2 31 -4 41 -2 11 1 15 8 10 7 -4 6 0 -1 10 -19
22 -14 126 7 152 15 19 15 19 -3 5 -18 -14 -19 -13 -13 24 8 51 41 81 101 93
11 2 21 5 23 6 1 2 18 1 38 -1 23 -3 32 -8 28 -16z m3379 1 c43 -18 60 -39 65
-83 3 -27 1 -34 -9 -28 -11 6 -11 5 0 -8 20 -25 8 -233 -20 -333 -6 -22 -11
-43 -10 -48 1 -4 -4 -22 -11 -40 -8 -17 -12 -38 -10 -44 3 -7 -3 -13 -14 -13
-14 0 -15 -2 -4 -9 11 -7 9 -17 -7 -55 -12 -25 -18 -46 -15 -46 3 0 0 -6 -6
-14 -7 -8 -14 -25 -16 -37 -3 -13 -9 -33 -14 -44 -20 -40 -55 -120 -56 -125 0
-9 -88 -185 -94 -190 -3 -3 -14 -21 -25 -40 -63 -119 -81 -150 -88 -150 -4 0
-8 -6 -9 -12 0 -7 -21 -44 -47 -83 -49 -72 -63 -80 -112 -62 -17 6 -22 5 -15
-2 6 -6 22 -12 35 -15 23 -3 29 -23 11 -36 -3 -3 -14 -18 -24 -33 -10 -15 -23
-25 -29 -21 -7 4 -8 3 -4 -4 7 -12 -22 -61 -37 -62 -5 0 -5 5 -1 12 4 7 3 8
-5 4 -6 -4 -11 -13 -10 -19 3 -25 -1 -38 -11 -32 -5 3 -10 -1 -10 -10 0 -9 -4
-13 -10 -10 -5 3 -10 -1 -10 -9 0 -8 -14 -30 -32 -48 -17 -18 -27 -26 -20 -17
15 20 72 160 72 177 0 6 4 12 9 12 5 0 17 3 27 7 13 5 15 3 9 -7 -5 -9 -4 -11
4 -6 17 11 2 28 -19 21 -16 -5 -18 -2 -14 17 3 13 7 34 10 48 3 14 7 32 9 40
2 8 4 25 4 38 1 16 5 21 14 16 9 -6 9 -4 1 7 -6 8 -10 23 -8 34 2 11 4 48 6
82 1 55 3 61 17 51 12 -9 12 -8 -1 7 -16 17 -16 19 0 34 10 9 13 13 8 9 -17
-13 -22 -9 -24 18 -2 24 0 25 16 13 16 -13 16 -12 2 5 -22 28 -22 49 1 43 10
-3 17 -1 13 4 -3 5 -11 9 -18 9 -10 0 -13 29 -12 123 1 86 4 122 13 122 6 0
15 3 19 7 3 4 -3 6 -14 3 -19 -3 -20 1 -19 43 2 38 5 47 19 46 10 -1 15 3 12
8 -3 5 -12 7 -20 4 -8 -3 -14 -1 -14 4 0 6 6 10 13 11 10 0 10 2 0 6 -19 7
-16 40 5 53 16 11 16 11 -1 6 -17 -5 -18 -1 -15 42 3 31 8 46 17 44 7 -1 10 2
6 8 -3 6 -10 8 -15 5 -6 -4 -8 37 -6 97 2 82 8 112 25 146 18 34 25 41 36 32
9 -8 15 -8 20 0 4 6 1 9 -6 8 -21 -5 -21 20 0 41 12 12 21 23 21 27 0 3 13 19
30 37 16 18 30 35 30 39 0 4 7 4 17 1 10 -4 14 -2 9 5 -8 13 59 66 74 57 6 -4
9 -1 8 7 -2 7 5 12 14 12 10 -1 16 2 13 6 -6 9 75 41 86 34 5 -3 9 -1 9 4 0
15 125 14 162 -1z m-2822 -1753 c0 -14 4 -23 8 -20 5 3 16 -12 26 -32 l17 -37
-45 50 c-44 48 -49 65 -20 65 8 0 14 -10 14 -26z"/>
<path d="M2816 5038 c3 -5 10 -6 15 -3 13 9 11 12 -6 12 -8 0 -12 -4 -9 -9z"/>
<path d="M2686 5022 c-3 -5 1 -9 9 -9 8 0 12 4 9 9 -3 4 -7 8 -9 8 -2 0 -6 -4
-9 -8z"/>
<path d="M2830 4999 c0 -5 5 -7 10 -4 6 3 10 8 10 11 0 2 -4 4 -10 4 -5 0 -10
-5 -10 -11z"/>
<path d="M2933 4985 c0 -8 4 -12 9 -9 5 3 6 10 3 15 -9 13 -12 11 -12 -6z"/>
<path d="M2966 4982 c-3 -5 1 -9 9 -9 8 0 12 4 9 9 -3 4 -7 8 -9 8 -2 0 -6 -4
-9 -8z"/>
<path d="M2869 4963 c-13 -16 -12 -17 4 -4 9 7 17 15 17 17 0 8 -8 3 -21 -13z"/>
<path d="M2766 4962 c-3 -5 1 -9 9 -9 8 0 12 4 9 9 -3 4 -7 8 -9 8 -2 0 -6 -4
-9 -8z"/>
<path d="M2536 4938 c3 -5 10 -6 15 -3 13 9 11 12 -6 12 -8 0 -12 -4 -9 -9z"/>
<path d="M2573 4929 c-2 -23 3 -25 10 -4 4 8 3 16 -1 19 -4 3 -9 -4 -9 -15z"/>
<path d="M2610 4940 c0 -5 5 -10 11 -10 5 0 7 5 4 10 -3 6 -8 10 -11 10 -2 0
-4 -4 -4 -10z"/>
<path d="M3040 4880 c-9 -6 -10 -10 -3 -10 6 0 15 5 18 10 8 12 4 12 -15 0z"/>
<path d="M3116 4847 c3 -10 9 -15 12 -12 3 3 0 11 -7 18 -10 9 -11 8 -5 -6z"/>
<path d="M2536 4833 c-6 -14 -5 -15 5 -6 7 7 10 15 7 18 -3 3 -9 -2 -12 -12z"/>
<path d="M3026 4838 c3 -4 9 -8 15 -8 5 0 9 4 9 8 0 5 -7 9 -15 9 -8 0 -12 -4
-9 -9z"/>
<path d="M3086 4805 c-11 -8 -15 -15 -9 -15 6 0 16 7 23 15 16 19 11 19 -14 0z"/>
<path d="M2499 4793 c-13 -16 -12 -17 4 -4 9 7 17 15 17 17 0 8 -8 3 -21 -13z"/>
<path d="M2550 4806 c0 -2 7 -7 16 -10 8 -3 12 -2 9 4 -6 10 -25 14 -25 6z"/>
<path d="M1273 3327 c0 -8 6 -14 14 -14 9 0 10 4 2 14 -6 7 -12 13 -14 13 -1
0 -2 -6 -2 -13z"/>
<path d="M1335 3300 c-3 -5 -1 -10 4 -10 6 0 11 5 11 10 0 6 -2 10 -4 10 -3 0
-8 -4 -11 -10z"/>
<path d="M1297 3235 c-4 -8 -3 -16 1 -19 4 -3 9 4 9 15 2 23 -3 25 -10 4z"/>
<path d="M1436 3207 c3 -10 9 -15 12 -12 3 3 0 11 -7 18 -10 9 -11 8 -5 -6z"/>
<path d="M1355 3200 c3 -5 8 -10 11 -10 2 0 4 5 4 10 0 6 -5 10 -11 10 -5 0
-7 -4 -4 -10z"/>
<path d="M1310 3185 c0 -7 30 -13 34 -7 3 4 -4 9 -15 9 -10 1 -19 0 -19 -2z"/>
<path d="M1470 3160 c0 -5 5 -10 11 -10 5 0 7 5 4 10 -3 6 -8 10 -11 10 -2 0
-4 -4 -4 -10z"/>
<path d="M1416 3142 c-3 -5 1 -9 9 -9 8 0 12 4 9 9 -3 4 -7 8 -9 8 -2 0 -6 -4
-9 -8z"/>
<path d="M1470 3126 c0 -2 7 -7 16 -10 8 -3 12 -2 9 4 -6 10 -25 14 -25 6z"/>
<path d="M1430 3025 c0 -7 30 -13 34 -7 3 4 -4 9 -15 9 -10 1 -19 0 -19 -2z"/>
<path d="M1270 2976 c0 -2 8 -10 18 -17 15 -13 16 -12 3 4 -13 16 -21 21 -21
13z"/>
<path d="M1486 2942 c-3 -5 1 -9 9 -9 8 0 12 4 9 9 -3 4 -7 8 -9 8 -2 0 -6 -4
-9 -8z"/>
<path d="M1530 2900 c0 -5 5 -10 11 -10 5 0 7 5 4 10 -3 6 -8 10 -11 10 -2 0
-4 -4 -4 -10z"/>
<path d="M1533 2805 c0 -8 4 -12 9 -9 5 3 6 10 3 15 -9 13 -12 11 -12 -6z"/>
<path d="M1550 2719 c0 -5 5 -7 10 -4 6 3 10 8 10 11 0 2 -4 4 -10 4 -5 0 -10
-5 -10 -11z"/>
<path d="M1590 2720 c0 -5 5 -10 11 -10 5 0 7 5 4 10 -3 6 -8 10 -11 10 -2 0
-4 -4 -4 -10z"/>
<path d="M1535 2660 c3 -5 8 -10 11 -10 2 0 4 5 4 10 0 6 -5 10 -11 10 -5 0
-7 -4 -4 -10z"/>
<path d="M1476 2642 c-3 -5 1 -9 9 -9 8 0 12 4 9 9 -3 4 -7 8 -9 8 -2 0 -6 -4
-9 -8z"/>
<path d="M1533 2615 c0 -8 4 -12 9 -9 5 3 6 10 3 15 -9 13 -12 11 -12 -6z"/>
<path d="M1510 2580 c0 -5 5 -10 11 -10 5 0 7 5 4 10 -3 6 -8 10 -11 10 -2 0
-4 -4 -4 -10z"/>
<path d="M1460 2560 c-9 -6 -10 -10 -3 -10 6 0 15 5 18 10 8 12 4 12 -15 0z"/>
<path d="M1493 2495 c0 -8 4 -12 9 -9 5 3 6 10 3 15 -9 13 -12 11 -12 -6z"/>
<path d="M1446 2462 c-3 -5 1 -9 9 -9 8 0 12 4 9 9 -3 4 -7 8 -9 8 -2 0 -6 -4
-9 -8z"/>
<path d="M1495 2459 c-3 -4 2 -6 10 -5 21 3 28 13 10 13 -9 0 -18 -4 -20 -8z"/>
<path d="M1550 2436 c7 -7 13 -7 20 0 6 6 3 10 -10 10 -13 0 -16 -4 -10 -10z"/>
<path d="M1554 2409 c-3 -6 -2 -15 3 -20 5 -5 9 -1 9 11 0 23 -2 24 -12 9z"/>
<path d="M1456 2382 c-3 -4 4 -9 15 -9 23 -2 25 3 4 10 -8 4 -16 3 -19 -1z"/>
<path d="M1553 2355 c0 -8 4 -12 9 -9 5 3 6 10 3 15 -9 13 -12 11 -12 -6z"/>
<path d="M1325 2320 c-3 -6 1 -7 9 -4 18 7 21 14 7 14 -6 0 -13 -4 -16 -10z"/>
<path d="M1376 2301 c-3 -5 2 -15 12 -22 15 -12 16 -12 5 2 -7 9 -10 19 -6 22
3 4 4 7 0 7 -3 0 -8 -4 -11 -9z"/>
<path d="M1510 2278 c0 -4 4 -8 9 -8 6 0 12 4 15 8 3 5 -1 9 -9 9 -8 0 -15 -4
-15 -9z"/>
<path d="M1553 2267 c0 -8 6 -14 14 -14 9 0 10 4 2 14 -6 7 -12 13 -14 13 -1
0 -2 -6 -2 -13z"/>
<path d="M1425 2240 c-3 -6 1 -7 9 -4 18 7 21 14 7 14 -6 0 -13 -4 -16 -10z"/>
<path d="M1375 2219 c-3 -4 2 -6 10 -5 21 3 28 13 10 13 -9 0 -18 -4 -20 -8z"/>
<path d="M1602 2197 l-22 -23 23 -1 c12 0 16 1 9 4 -10 4 -9 9 4 24 24 27 12
24 -14 -4z"/>
<path d="M1370 2180 c0 -5 5 -10 11 -10 5 0 7 5 4 10 -3 6 -8 10 -11 10 -2 0
-4 -4 -4 -10z"/>
<path d="M1601 2136 c-6 -7 -25 -12 -41 -11 -16 1 -28 -1 -25 -5 2 -4 17 -6
32 -5 15 1 34 -6 41 -14 11 -14 12 -13 3 5 -7 15 -7 24 1 32 7 7 9 12 6 12 -3
0 -11 -6 -17 -14z"/>
<path d="M1475 2131 c-3 -5 -2 -12 3 -15 5 -3 9 1 9 9 0 17 -3 19 -12 6z"/>
<path d="M1575 2089 c-4 -6 -5 -12 -2 -15 2 -3 7 2 10 11 7 17 1 20 -8 4z"/>
<path d="M1520 2086 c0 -2 8 -10 18 -17 15 -13 16 -12 3 4 -13 16 -21 21 -21
13z"/>
<path d="M1570 2056 c0 -2 8 -10 18 -17 15 -13 16 -12 3 4 -13 16 -21 21 -21
13z"/>
<path d="M1536 2033 c-6 -14 -5 -15 5 -6 7 7 10 15 7 18 -3 3 -9 -2 -12 -12z"/>
<path d="M1555 2010 c-4 -6 -10 -8 -14 -6 -4 3 -8 -1 -8 -9 0 -13 4 -12 19 2
18 16 22 23 14 23 -3 0 -8 -5 -11 -10z"/>
<path d="M1601 1996 c-9 -10 -8 -15 3 -19 11 -4 13 -1 9 10 -5 12 -3 14 7 8 9
-5 11 -4 6 3 -9 15 -11 15 -25 -2z"/>
<path d="M1564 1975 c-4 -8 -11 -12 -18 -8 -8 5 -8 3 0 -8 6 -8 10 -22 9 -32
-2 -9 0 -15 5 -12 5 3 7 13 5 23 -1 9 2 25 7 35 5 9 6 17 3 17 -3 0 -8 -7 -11
-15z"/>
<path d="M1634 1961 c4 -5 1 -12 -4 -14 -6 -3 -5 -4 2 -3 15 3 23 26 8 26 -6
0 -9 -4 -6 -9z"/>
<path d="M1586 1938 c3 -5 10 -6 15 -3 13 9 11 12 -6 12 -8 0 -12 -4 -9 -9z"/>
<path d="M1597 1872 c5 -11 3 -13 -8 -7 -8 5 -11 4 -6 0 14 -16 36 -14 30 3
-5 11 -3 13 8 7 8 -5 11 -4 6 0 -14 16 -36 14 -30 -3z"/>
<path d="M1635 1840 c3 -6 1 -10 -6 -10 -7 0 -10 -3 -6 -6 3 -3 13 -2 22 4 16
8 16 9 1 15 -10 4 -15 3 -11 -3z"/>
<path d="M1610 1801 c0 -6 4 -13 10 -16 6 -3 7 1 4 9 -7 18 -14 21 -14 7z"/>
<path d="M1659 1788 c-6 -22 -5 -39 3 -45 6 -3 8 -1 4 5 -3 5 0 13 6 15 10 4
10 6 0 6 -7 1 -10 6 -7 11 3 6 4 10 1 10 -3 0 -6 -1 -7 -2z"/>
<path d="M1675 1730 c-3 -5 -1 -10 4 -10 6 0 11 5 11 10 0 6 -2 10 -4 10 -3 0
-8 -4 -11 -10z"/>
<path d="M4435 3349 c-4 -6 -5 -12 -2 -15 2 -3 7 2 10 11 7 17 1 20 -8 4z"/>
<path d="M4330 3340 c0 -5 5 -10 11 -10 5 0 7 5 4 10 -3 6 -8 10 -11 10 -2 0
-4 -4 -4 -10z"/>
<path d="M4500 3320 c-9 -6 -10 -10 -3 -10 6 0 15 5 18 10 8 12 4 12 -15 0z"/>
<path d="M4270 3280 c0 -5 5 -10 11 -10 5 0 7 5 4 10 -3 6 -8 10 -11 10 -2 0
-4 -4 -4 -10z"/>
<path d="M4370 3280 c0 -5 5 -10 11 -10 5 0 7 5 4 10 -3 6 -8 10 -11 10 -2 0
-4 -4 -4 -10z"/>
<path d="M4215 3180 c-3 -5 -1 -10 4 -10 6 0 11 5 11 10 0 6 -2 10 -4 10 -3 0
-8 -4 -11 -10z"/>
<path d="M4254 3136 c1 -8 5 -18 8 -22 4 -3 5 1 4 10 -1 8 -5 18 -8 22 -4 3
-5 -1 -4 -10z"/>
<path d="M4221 3076 c-9 -11 -9 -16 1 -22 7 -4 10 -4 6 1 -4 4 -3 14 3 22 6 7
9 13 6 13 -2 0 -10 -6 -16 -14z"/>
<path d="M4044 2982 c-11 -8 -15 -64 -3 -56 4 2 6 12 4 22 -1 9 2 23 8 30 11
13 7 15 -9 4z"/>
<path d="M4130 2939 c0 -5 5 -7 10 -4 6 3 10 8 10 11 0 2 -4 4 -10 4 -5 0 -10
-5 -10 -11z"/>
<path d="M4090 2819 c0 -5 5 -7 10 -4 6 3 10 8 10 11 0 2 -4 4 -10 4 -5 0 -10
-5 -10 -11z"/>
<path d="M4153 2805 c0 -8 4 -12 9 -9 5 3 6 10 3 15 -9 13 -12 11 -12 -6z"/>
<path d="M4033 2775 c0 -8 4 -12 9 -9 5 3 6 10 3 15 -9 13 -12 11 -12 -6z"/>
<path d="M4090 2739 c0 -5 5 -7 10 -4 6 3 10 8 10 11 0 2 -4 4 -10 4 -5 0 -10
-5 -10 -11z"/>
<path d="M4095 2700 c3 -5 8 -10 11 -10 2 0 4 5 4 10 0 6 -5 10 -11 10 -5 0
-7 -4 -4 -10z"/>
<path d="M4134 2656 c1 -8 5 -18 8 -22 4 -3 5 1 4 10 -1 8 -5 18 -8 22 -4 3
-5 -1 -4 -10z"/>
<path d="M4080 2560 c-9 -6 -10 -10 -3 -10 6 0 15 5 18 10 8 12 4 12 -15 0z"/>
<path d="M4115 2560 c-3 -5 -1 -10 4 -10 6 0 11 5 11 10 0 6 -2 10 -4 10 -3 0
-8 -4 -11 -10z"/>
<path d="M4179 2548 c-5 -18 -6 -38 -1 -34 7 8 12 36 6 36 -2 0 -4 -1 -5 -2z"/>
<path d="M4059 2513 c-13 -17 -13 -17 6 -3 11 8 22 16 24 17 2 2 0 3 -6 3 -6
0 -17 -8 -24 -17z"/>
<path d="M4056 2482 c-3 -4 4 -9 15 -9 23 -2 25 3 4 10 -8 4 -16 3 -19 -1z"/>
<path d="M4066 2418 c3 -5 10 -6 15 -3 13 9 11 12 -6 12 -8 0 -12 -4 -9 -9z"/>
<path d="M4033 2395 c0 -14 3 -25 6 -25 4 0 7 11 7 25 0 14 -3 25 -7 25 -3 0
-6 -11 -6 -25z"/>
<path d="M4246 2382 c-3 -5 1 -9 9 -9 8 0 12 4 9 9 -3 4 -7 8 -9 8 -2 0 -6 -4
-9 -8z"/>
<path d="M4190 2345 c0 -7 30 -13 34 -7 3 4 -4 9 -15 9 -10 1 -19 0 -19 -2z"/>
<path d="M4110 2298 c0 -4 4 -8 9 -8 6 0 12 4 15 8 3 5 -1 9 -9 9 -8 0 -15 -4
-15 -9z"/>
<path d="M4210 2299 c0 -5 5 -7 10 -4 6 3 10 8 10 11 0 2 -4 4 -10 4 -5 0 -10
-5 -10 -11z"/>
<path d="M4150 2259 c0 -5 5 -7 10 -4 6 3 10 8 10 11 0 2 -4 4 -10 4 -5 0 -10
-5 -10 -11z"/>
<path d="M4255 2260 c3 -5 8 -10 11 -10 2 0 4 5 4 10 0 6 -5 10 -11 10 -5 0
-7 -4 -4 -10z"/>
<path d="M4110 2241 c0 -5 8 -15 18 -22 15 -12 16 -12 5 2 -7 9 -10 19 -6 22
3 4 1 7 -5 7 -7 0 -12 -4 -12 -9z"/>
<path d="M4155 2231 c-3 -5 -2 -12 3 -15 5 -3 9 1 9 9 0 17 -3 19 -12 6z"/>
<path d="M4076 2178 c3 -5 10 -6 15 -3 13 9 11 12 -6 12 -8 0 -12 -4 -9 -9z"/>
<path d="M4140 2185 c0 -2 6 -8 13 -14 10 -8 14 -7 14 2 0 8 -6 14 -14 14 -7
0 -13 -1 -13 -2z"/>
<path d="M4106 2162 c-3 -5 1 -9 9 -9 8 0 12 4 9 9 -3 4 -7 8 -9 8 -2 0 -6 -4
-9 -8z"/>
<path d="M4239 2153 c-13 -16 -12 -17 4 -4 16 13 21 21 13 21 -2 0 -10 -8 -17
-17z"/>
<path d="M4070 2132 c9 -19 14 -21 26 -11 8 6 14 14 14 17 0 3 -5 1 -12 -6 -9
-9 -15 -7 -25 6 -13 15 -13 14 -3 -6z"/>
<path d="M4111 2107 c-13 -21 -12 -21 5 -5 10 10 16 20 13 22 -3 3 -11 -5 -18
-17z"/>
<path d="M4034 2085 c0 -14 6 -27 13 -29 9 -4 10 1 3 18 -5 13 -6 27 -3 30 4
3 2 6 -4 6 -6 0 -10 -11 -9 -25z"/>
<path d="M4160 2080 c-9 -6 -10 -10 -3 -10 6 0 15 5 18 10 8 12 4 12 -15 0z"/>
<path d="M4200 2080 c-9 -6 -10 -10 -3 -10 6 0 15 5 18 10 8 12 4 12 -15 0z"/>
<path d="M4110 2076 c0 -2 8 -10 18 -17 15 -13 16 -12 3 4 -13 16 -21 21 -21
13z"/>
<path d="M4093 2045 c0 -8 4 -12 9 -9 5 3 6 10 3 15 -9 13 -12 11 -12 -6z"/>
<path d="M4109 2023 c-13 -16 -12 -17 4 -4 9 7 17 15 17 17 0 8 -8 3 -21 -13z"/>
<path d="M4036 2005 c4 -8 8 -15 10 -15 2 0 4 7 4 15 0 8 -4 15 -10 15 -5 0
-7 -7 -4 -15z"/>
<path d="M4110 1996 c0 -2 8 -10 18 -17 15 -13 16 -12 3 4 -13 16 -21 21 -21
13z"/>
<path d="M4077 1977 c4 -7 -1 -8 -13 -3 -15 6 -17 5 -6 -5 10 -11 15 -10 28 2
13 14 13 16 0 16 -8 0 -12 -5 -9 -10z"/>
<path d="M4022 1960 c0 -14 2 -19 5 -12 2 6 2 18 0 25 -3 6 -5 1 -5 -13z"/>
<path d="M4095 1961 c-3 -5 -2 -12 3 -15 5 -3 9 1 9 9 0 17 -3 19 -12 6z"/>
<path d="M4015 1920 c-3 -5 -1 -10 4 -10 6 0 11 5 11 10 0 6 -2 10 -4 10 -3 0
-8 -4 -11 -10z"/>
<path d="M4056 1898 c3 -5 10 -6 15 -3 13 9 11 12 -6 12 -8 0 -12 -4 -9 -9z"/>
<path d="M4030 1896 c0 -2 8 -10 18 -17 15 -13 16 -12 3 4 -13 16 -21 21 -21
13z"/>
<path d="M4030 1849 c0 -5 5 -7 10 -4 6 3 10 8 10 11 0 2 -4 4 -10 4 -5 0 -10
-5 -10 -11z"/>
<path d="M3955 1740 c-3 -6 1 -7 9 -4 18 7 21 14 7 14 -6 0 -13 -4 -16 -10z"/>
<path d="M3296 4875 c-9 -26 -7 -32 5 -12 6 10 9 21 6 23 -2 3 -7 -2 -11 -11z"/>
<path d="M3330 4799 c0 -5 5 -7 10 -4 6 3 10 8 10 11 0 2 -4 4 -10 4 -5 0 -10
-5 -10 -11z"/>
<path d="M3373 4785 c0 -8 4 -12 9 -9 5 3 6 10 3 15 -9 13 -12 11 -12 -6z"/>
<path d="M3373 4729 c-2 -23 3 -25 10 -4 4 8 3 16 -1 19 -4 3 -9 -4 -9 -15z"/>
<path d="M2206 4718 c3 -5 10 -6 15 -3 13 9 11 12 -6 12 -8 0 -12 -4 -9 -9z"/>
<path d="M2154 4656 c1 -8 5 -18 8 -22 4 -3 5 1 4 10 -1 8 -5 18 -8 22 -4 3
-5 -1 -4 -10z"/>
<path d="M3496 4658 c3 -5 10 -6 15 -3 13 9 11 12 -6 12 -8 0 -12 -4 -9 -9z"/>
<path d="M2100 4640 c-9 -6 -10 -10 -3 -10 6 0 15 5 18 10 8 12 4 12 -15 0z"/>
<path d="M2116 4593 c-6 -14 -5 -15 5 -6 7 7 10 15 7 18 -3 3 -9 -2 -12 -12z"/>
<path d="M2055 4540 c3 -5 8 -10 11 -10 2 0 4 5 4 10 0 6 -5 10 -11 10 -5 0
-7 -4 -4 -10z"/>
<path d="M3593 4515 c0 -8 4 -12 9 -9 5 3 6 10 3 15 -9 13 -12 11 -12 -6z"/>
<path d="M1916 4453 c-6 -14 -5 -15 5 -6 7 7 10 15 7 18 -3 3 -9 -2 -12 -12z"/>
<path d="M3653 4455 c0 -8 4 -12 9 -9 5 3 6 10 3 15 -9 13 -12 11 -12 -6z"/>
<path d="M3694 4456 c1 -8 5 -18 8 -22 4 -3 5 1 4 10 -1 8 -5 18 -8 22 -4 3
-5 -1 -4 -10z"/>
<path d="M3750 4420 c0 -5 5 -10 11 -10 5 0 7 5 4 10 -3 6 -8 10 -11 10 -2 0
-4 -4 -4 -10z"/>
<path d="M1916 4407 c3 -10 9 -15 12 -12 3 3 0 11 -7 18 -10 9 -11 8 -5 -6z"/>
<path d="M1994 4376 c1 -8 5 -18 8 -22 4 -3 5 1 4 10 -1 8 -5 18 -8 22 -4 3
-5 -1 -4 -10z"/>
<path d="M1866 4365 c-11 -8 -15 -15 -9 -15 6 0 16 7 23 15 16 19 11 19 -14 0z"/>
<path d="M1906 4362 c-3 -5 1 -9 9 -9 8 0 12 4 9 9 -3 4 -7 8 -9 8 -2 0 -6 -4
-9 -8z"/>
<path d="M1955 4361 c-3 -5 -2 -12 3 -15 5 -3 9 1 9 9 0 17 -3 19 -12 6z"/>
<path d="M3706 4362 c-2 -4 4 -8 14 -8 10 0 16 4 14 8 -3 4 -9 8 -14 8 -5 0
-11 -4 -14 -8z"/>
<path d="M1665 4080 c-3 -6 1 -7 9 -4 18 7 21 14 7 14 -6 0 -13 -4 -16 -10z"/>
<path d="M3870 4041 c0 -6 4 -13 10 -16 6 -3 7 1 4 9 -7 18 -14 21 -14 7z"/>
<path d="M3990 4016 c0 -2 8 -10 18 -17 15 -13 16 -12 3 4 -13 16 -21 21 -21
13z"/>
<path d="M3954 3996 c1 -8 5 -18 8 -22 4 -3 5 1 4 10 -1 8 -5 18 -8 22 -4 3
-5 -1 -4 -10z"/>
<path d="M1590 3981 c0 -6 4 -13 10 -16 6 -3 7 1 4 9 -7 18 -14 21 -14 7z"/>
<path d="M1805 3959 c-3 -4 2 -6 10 -5 21 3 28 13 10 13 -9 0 -18 -4 -20 -8z"/>
<path d="M3855 3931 c-3 -5 -2 -12 3 -15 5 -3 9 1 9 9 0 17 -3 19 -12 6z"/>
<path d="M1753 3915 c0 -8 4 -12 9 -9 5 3 6 10 3 15 -9 13 -12 11 -12 -6z"/>
<path d="M1695 3900 c3 -5 8 -10 11 -10 2 0 4 5 4 10 0 6 -5 10 -11 10 -5 0
-7 -4 -4 -10z"/>
<path d="M3960 3900 c-12 -7 -10 -9 7 -7 12 0 19 5 17 9 -6 10 -6 10 -24 -2z"/>
<path d="M4020 3880 c-9 -6 -10 -10 -3 -10 6 0 15 5 18 10 8 12 4 12 -15 0z"/>
<path d="M1616 3838 c3 -5 10 -6 15 -3 13 9 11 12 -6 12 -8 0 -12 -4 -9 -9z"/>
<path d="M1656 3818 c3 -5 10 -6 15 -3 13 9 11 12 -6 12 -8 0 -12 -4 -9 -9z"/>
<path d="M4015 3821 c-3 -5 -2 -12 3 -15 5 -3 9 1 9 9 0 17 -3 19 -12 6z"/>
<path d="M1619 3808 c-5 -18 -6 -38 -1 -34 7 8 12 36 6 36 -2 0 -4 -1 -5 -2z"/>
<path d="M3936 3798 c3 -5 10 -6 15 -3 13 9 11 12 -6 12 -8 0 -12 -4 -9 -9z"/>
<path d="M4010 3780 c0 -5 5 -10 11 -10 5 0 7 5 4 10 -3 6 -8 10 -11 10 -2 0
-4 -4 -4 -10z"/>
<path d="M3955 3751 c-3 -5 -2 -12 3 -15 5 -3 9 1 9 9 0 17 -3 19 -12 6z"/>
<path d="M1575 3739 c-3 -4 2 -6 10 -5 21 3 28 13 10 13 -9 0 -18 -4 -20 -8z"/>
<path d="M4006 3738 c3 -5 10 -6 15 -3 13 9 11 12 -6 12 -8 0 -12 -4 -9 -9z"/>
<path d="M4055 3740 c3 -5 8 -10 11 -10 2 0 4 5 4 10 0 6 -5 10 -11 10 -5 0
-7 -4 -4 -10z"/>
<path d="M1629 3683 c-13 -16 -12 -17 4 -4 9 7 17 15 17 17 0 8 -8 3 -21 -13z"/>
<path d="M1490 3680 c0 -5 5 -10 11 -10 5 0 7 5 4 10 -3 6 -8 10 -11 10 -2 0
-4 -4 -4 -10z"/>
<path d="M1547 3679 c7 -7 15 -10 18 -7 3 3 -2 9 -12 12 -14 6 -15 5 -6 -5z"/>
<path d="M1590 3679 c0 -5 5 -7 10 -4 6 3 10 8 10 11 0 2 -4 4 -10 4 -5 0 -10
-5 -10 -11z"/>
<path d="M1656 3682 c-3 -5 1 -9 9 -9 8 0 12 4 9 9 -3 4 -7 8 -9 8 -2 0 -6 -4
-9 -8z"/>
<path d="M1594 3636 c1 -8 5 -18 8 -22 4 -3 5 1 4 10 -1 8 -5 18 -8 22 -4 3
-5 -1 -4 -10z"/>
<path d="M1633 3626 c0 -15 22 -15 34 0 4 5 4 6 -1 2 -5 -4 -14 -3 -21 2 -8 7
-12 5 -12 -4z"/>
<path d="M1494 3616 c1 -8 5 -18 8 -22 4 -3 5 1 4 10 -1 8 -5 18 -8 22 -4 3
-5 -1 -4 -10z"/>
<path d="M4135 3620 c3 -5 8 -10 11 -10 2 0 4 5 4 10 0 6 -5 10 -11 10 -5 0
-7 -4 -4 -10z"/>
<path d="M4196 3615 c-9 -26 -7 -32 5 -12 6 10 9 21 6 23 -2 3 -7 -2 -11 -11z"/>
<path d="M4005 3599 c-3 -4 2 -6 10 -5 21 3 28 13 10 13 -9 0 -18 -4 -20 -8z"/>
<path d="M4155 3601 c-3 -5 -2 -12 3 -15 5 -3 9 1 9 9 0 17 -3 19 -12 6z"/>
<path d="M1595 3581 c-3 -5 -2 -12 3 -15 5 -3 9 1 9 9 0 17 -3 19 -12 6z"/>
<path d="M4015 3571 c-3 -5 -2 -12 3 -15 5 -3 9 1 9 9 0 17 -3 19 -12 6z"/>
<path d="M4075 3562 c3 -3 0 -10 -5 -17 -7 -8 -5 -12 5 -12 8 0 13 3 10 5 -3
3 0 10 5 17 7 8 5 12 -5 12 -8 0 -13 -3 -10 -5z"/>
<path d="M1549 3497 c6 -8 7 -18 3 -23 -4 -5 -3 -6 2 -2 5 4 16 2 25 -4 9 -7
5 0 -8 15 -25 27 -43 39 -22 14z"/>
<path d="M4041 3473 c-1 -17 16 -25 25 -12 4 7 3 9 -4 5 -5 -3 -13 0 -15 6 -4
9 -6 10 -6 1z"/>
<path d="M1355 1689 c-4 -6 -5 -12 -2 -15 2 -3 7 2 10 11 7 17 1 20 -8 4z"/>
<path d="M4093 1503 c4 -3 1 -13 -6 -22 -11 -14 -10 -14 5 -2 16 12 16 31 1
31 -4 0 -3 -3 0 -7z"/>
<path d="M1517 1493 c-10 -9 -9 -23 1 -23 5 0 9 7 9 15 0 17 -1 18 -10 8z"/>
<path d="M4119 1473 c-13 -16 -12 -17 4 -4 16 13 21 21 13 21 -2 0 -10 -8 -17
-17z"/>
<path d="M4055 1421 c-3 -5 -2 -12 3 -15 5 -3 9 1 9 9 0 17 -3 19 -12 6z"/>
<path d="M1570 1399 c0 -5 5 -7 10 -4 6 3 10 8 10 11 0 2 -4 4 -10 4 -5 0 -10
-5 -10 -11z"/>
<path d="M4075 1369 c-4 -6 -5 -12 -2 -15 2 -3 7 2 10 11 7 17 1 20 -8 4z"/>
<path d="M4015 1340 c3 -5 8 -10 11 -10 2 0 4 5 4 10 0 6 -5 10 -11 10 -5 0
-7 -4 -4 -10z"/>
<path d="M1595 1299 c-3 -4 2 -6 10 -5 21 3 28 13 10 13 -9 0 -18 -4 -20 -8z"/>
<path d="M1657 1275 c-4 -8 -3 -16 1 -19 4 -3 9 4 9 15 2 23 -3 25 -10 4z"/>
<path d="M1715 1260 c-3 -5 -1 -10 4 -10 6 0 11 5 11 10 0 6 -2 10 -4 10 -3 0
-8 -4 -11 -10z"/>
<path d="M3899 1258 c-5 -18 -6 -38 -1 -34 7 8 12 36 6 36 -2 0 -4 -1 -5 -2z"/>
<path d="M1790 1236 c0 -2 8 -10 18 -17 15 -13 16 -12 3 4 -13 16 -21 21 -21
13z"/>
<path d="M1659 1228 c-5 -18 -6 -38 -1 -34 7 8 12 36 6 36 -2 0 -4 -1 -5 -2z"/>
<path d="M1695 1220 c3 -5 8 -10 11 -10 2 0 4 5 4 10 0 6 -5 10 -11 10 -5 0
-7 -4 -4 -10z"/>
<path d="M3826 1222 c-2 -4 4 -8 14 -8 10 0 16 4 14 8 -3 4 -9 8 -14 8 -5 0
-11 -4 -14 -8z"/>
<path d="M1773 1205 c0 -8 3 -13 5 -10 3 3 12 -1 21 -7 10 -8 9 -4 -3 10 -23
26 -23 26 -23 7z"/>
<path d="M3896 1202 c-3 -4 4 -9 15 -9 23 -2 25 3 4 10 -8 4 -16 3 -19 -1z"/>
<path d="M1826 1176 c6 -15 4 -17 -6 -11 -9 6 -11 4 -5 -4 5 -9 10 -10 18 -2
8 8 7 14 -2 24 -10 10 -11 8 -5 -7z"/>
<path d="M1773 1165 c0 -8 3 -13 5 -10 3 3 15 -3 26 -12 15 -13 14 -10 -3 10
-29 32 -28 31 -28 12z"/>
<path d="M3774 1172 c3 -6 1 -12 -6 -14 -7 -3 -5 -7 6 -11 11 -5 15 -3 10 5
-5 8 -2 9 9 5 24 -9 21 0 -4 14 -13 6 -19 7 -15 1z"/>
<path d="M1854 1142 c4 -7 1 -12 -8 -12 -19 0 -21 -16 -3 -26 6 -4 9 -4 5 1
-4 4 0 13 9 20 13 9 13 14 3 20 -9 5 -11 4 -6 -3z"/>
<path d="M3819 1128 c7 -9 9 -23 5 -30 -6 -10 -4 -11 7 0 11 10 10 15 -6 30
-17 15 -18 15 -6 0z"/>
<path d="M1696 1101 c-3 -5 2 -15 12 -22 15 -12 16 -12 5 2 -7 9 -10 19 -6 22
3 4 4 7 0 7 -3 0 -8 -4 -11 -9z"/>
<path d="M1814 1080 c0 -13 4 -16 10 -10 7 7 7 13 0 20 -6 6 -10 3 -10 -10z"/>
<path d="M1670 1081 c0 -6 4 -13 10 -16 6 -3 7 1 4 9 -7 18 -14 21 -14 7z"/>
<path d="M3836 1081 c-3 -5 2 -15 12 -22 15 -12 16 -12 5 2 -7 9 -10 19 -6 22
3 4 4 7 0 7 -3 0 -8 -4 -11 -9z"/>
<path d="M1755 1061 c-3 -5 -2 -12 3 -15 5 -3 9 1 9 9 0 17 -3 19 -12 6z"/>
<path d="M3909 1043 c-13 -16 -12 -17 4 -4 16 13 21 21 13 21 -2 0 -10 -8 -17
-17z"/>
<path d="M3867 1019 c7 -7 15 -10 18 -7 3 3 -2 9 -12 12 -14 6 -15 5 -6 -5z"/>
<path d="M3913 1005 c0 -8 4 -12 9 -9 5 3 6 10 3 15 -9 13 -12 11 -12 -6z"/>
<path d="M1955 580 c3 -5 8 -10 11 -10 2 0 4 5 4 10 0 6 -5 10 -11 10 -5 0 -7
-4 -4 -10z"/>
<path d="M2016 582 c-3 -5 1 -9 9 -9 8 0 12 4 9 9 -3 4 -7 8 -9 8 -2 0 -6 -4
-9 -8z"/>
<path d="M2090 580 c0 -5 5 -10 11 -10 5 0 7 5 4 10 -3 6 -8 10 -11 10 -2 0
-4 -4 -4 -10z"/>
<path d="M3710 580 c0 -5 5 -10 11 -10 5 0 7 5 4 10 -3 6 -8 10 -11 10 -2 0
-4 -4 -4 -10z"/>
<path d="M3869 563 c-13 -16 -12 -17 4 -4 16 13 21 21 13 21 -2 0 -10 -8 -17
-17z"/>
<path d="M2606 558 c3 -5 10 -6 15 -3 13 9 11 12 -6 12 -8 0 -12 -4 -9 -9z"/>
<path d="M3296 558 c3 -5 10 -6 15 -3 13 9 11 12 -6 12 -8 0 -12 -4 -9 -9z"/>
<path d="M2136 542 c-3 -5 1 -9 9 -9 8 0 12 4 9 9 -3 4 -7 8 -9 8 -2 0 -6 -4
-9 -8z"/>
<path d="M2194 542 c4 -3 14 -7 22 -8 9 -1 13 0 10 4 -4 3 -14 7 -22 8 -9 1
-13 0 -10 -4z"/>
<path d="M2255 539 c-3 -4 2 -6 10 -5 21 3 28 13 10 13 -9 0 -18 -4 -20 -8z"/>
<path d="M2435 539 c-3 -4 2 -6 10 -5 21 3 28 13 10 13 -9 0 -18 -4 -20 -8z"/>
<path d="M2490 545 c0 -7 30 -13 34 -7 3 4 -4 9 -15 9 -10 1 -19 0 -19 -2z"/>
<path d="M2675 539 c-3 -4 2 -6 10 -5 21 3 28 13 10 13 -9 0 -18 -4 -20 -8z"/>
<path d="M2735 539 c-3 -4 2 -6 10 -5 21 3 28 13 10 13 -9 0 -18 -4 -20 -8z"/>
<path d="M2915 539 c-3 -4 2 -6 10 -5 21 3 28 13 10 13 -9 0 -18 -4 -20 -8z"/>
<path d="M2975 539 c-3 -4 2 -6 10 -5 21 3 28 13 10 13 -9 0 -18 -4 -20 -8z"/>
<path d="M3155 539 c-3 -4 2 -6 10 -5 21 3 28 13 10 13 -9 0 -18 -4 -20 -8z"/>
<path d="M3214 542 c4 -3 14 -7 22 -8 9 -1 13 0 10 4 -4 3 -14 7 -22 8 -9 1
-13 0 -10 -4z"/>
<path d="M3396 538 c3 -4 11 -5 19 -1 21 7 19 12 -4 10 -11 0 -18 -5 -15 -9z"/>
<path d="M3456 542 c-3 -5 1 -9 9 -9 8 0 12 4 9 9 -3 4 -7 8 -9 8 -2 0 -6 -4
-9 -8z"/>
<path d="M3515 540 c3 -5 8 -10 11 -10 2 0 4 5 4 10 0 6 -5 10 -11 10 -5 0 -7
-4 -4 -10z"/>
<path d="M3309 523 c-13 -16 -12 -17 4 -4 16 13 21 21 13 21 -2 0 -10 -8 -17
-17z"/>
<path d="M2795 440 c3 -5 8 -10 11 -10 2 0 4 5 4 10 0 6 -5 10 -11 10 -5 0 -7
-4 -4 -10z"/>
<path d="M3270 439 c0 -5 5 -7 10 -4 6 3 10 8 10 11 0 2 -4 4 -10 4 -5 0 -10
-5 -10 -11z"/>
</g>
</svg>
